<svg version="1.1" xmlns="http://www.w3.org/2000/svg" viewBox="0 0 877 784">
  <!-- svg-source:excalidraw -->
  <defs>
    <style>
      @font-face {
        font-family: "Virgil";
        src: url("https://excalidraw.com/FG_Virgil.woff2");
      }
      @font-face {
        font-family: "Cascadia";
        src: url("https://excalidraw.com/Cascadia.woff2");
      }
    </style>
  </defs>
  <rect x="0" y="0" width="877" height="784" fill="#ffffff"></rect><g transform="translate(407 210) rotate(0 78.5 28)"><path d="M-0.2563384883105755 -1.7151692397892475 C50.21839891877026 0.6238980302400887, 101.4061375770718 0.46154224963858725, 155.0247065909207 -1.388149667531252 M-0.9239984396845102 -0.3286820109933615 C52.2157263411209 1.7689157875441015, 104.65346099436283 1.0698726924322546, 156.09405884705484 -0.6853938158601522 M155.19748472049832 -1.2150568254292011 C157.40501382350922 14.04108000472188, 157.45560088157654 25.11760181412101, 158.8964871056378 57.32907624170184 M156.8136466499418 0.5374393407255411 C158.03497499741613 15.352521561458708, 157.06326365984975 32.22448282577098, 157.39930609427392 56.90447669662535 M157.1996058113873 55.17212147638202 C111.46020843926817 58.56810144541785, 63.477025208994746 55.29589001296088, -0.40987492725253105 54.92738659307361 M156.23267868719995 56.63290982879698 C110.04620694909244 56.572381151858714, 64.26699801310896 58.10715992564335, 0.8614651914685965 55.786257380619645 M-0.6375484578311443 56.89839203283191 C-1.432668922841549 38.37204107418657, -0.17493617385625837 19.18145595416427, 1.5500785000622272 -0.1607234962284565 M0.39700148068368435 55.65847408212721 C0.6175267089158297 35.331668986752625, 0.05768442042171962 13.579443130269638, 0.597174322232604 0.2017084900289774" stroke="#000000" stroke-width="1" fill="none"></path></g><g transform="translate(436.5 227) rotate(0 50 13)"><text x="0" y="18" font-family="Virgil" font-size="20px" fill="#000000" text-anchor="start" style="white-space: pre;" direction="ltr">file-loader</text></g><g transform="translate(396 346) rotate(0 81.5 35)"><path d="M0.1996058113873005 -0.8278785236179829 C50.28813811484724 0.7723665451817214, 98.13288456015289 -2.499844887275249, 162.59012507274747 -1.0726134069263935 M-0.7673213128000498 0.6329098287969828 C47.09795504603535 -2.2554687905870376, 95.37049420699478 -0.7206900168024002, 163.8614651914686 -0.21374261938035488 M162.36245154216886 0.8983920328319073 C160.9249240187928 25.590291699394584, 162.1826567677781 49.61795720458031, 164.55007850006223 69.83927650377154 M163.39700148068368 -0.3415259178727865 C162.68353292997926 27.943184390664104, 162.12369064148515 54.8024739380926, 163.5971743222326 70.20170849002898 M164.8492299206555 70.17749996110797 C103.27111096587032 71.16217204304412, 44.820544043555856 70.20442136498168, 1.8965866453945637 68.13395984098315 M163.81387821398675 70.71526735462248 C111.71027958523482 70.03195171317086, 58.8341341882944 70.20948790272698, -0.39606895484030247 69.3554809037596 M0.4989302046597004 69.8599091283977 C2.144372140057385 45.36806374974549, -1.4322533262893558 22.14924006909132, 0.5506700165569782 1.3923692218959332 M0.3714314457029104 69.36731552518904 C-0.9818685425445437 52.066871020942926, -1.0426835788413882 34.772768450900905, -0.302407706156373 0.47761612571775913" stroke="#000000" stroke-width="1" fill="none"></path></g><g transform="translate(409 368) rotate(0 68.5 13)"><text x="0" y="18" font-family="Virgil" font-size="20px" fill="#000000" text-anchor="start" style="white-space: pre;" direction="ltr">openapi-loader</text></g><g transform="translate(619 208) rotate(0 101 26.5)"><path d="M0.14211371296925096 -1.1213020612860871 C65.0690835987686 0.36600304332676825, 133.38941997152625 -1.8540035081817057, 203.04766182698032 1.165490166073255 M-0.746150163956008 0.6303036795326925 C67.61367931031859 1.7528429131771017, 133.2367741201057 1.775311757848804, 202.6351372924216 0.7836856815897918 M200.29695795848968 0.457614254206419 C203.3914770277031 17.872882982157172, 201.99012164192277 33.14247223623097, 202.60107051208618 51.27468891069293 M202.89586613141003 0.35402929224073887 C201.4447937588953 19.552130222879352, 201.306536553409 39.63584554865957, 202.5639192219824 53.944764310494065 M201.66251406191193 52.37906974991682 C126.86694588251699 52.08994371428222, 52.26717916986551 50.93820698015961, 0.28313504197825934 51.82535373255875 M202.5034697739285 53.44805570096752 C156.480421765748 51.47767305206037, 112.01459655553114 52.39781868147176, 0.09860114783991798 53.20876418068118 M1.7586929686367512 54.868289064615965 C0.2623422951810062 30.503935780562458, 0.05592556906864049 9.868658882006997, -1.985190998762846 0.8452987186610699 M0.4122577663511038 53.09463953413069 C0.6515600537694991 37.830797171778975, -0.04919333701953288 23.41558189988136, -0.9782714489847422 -0.14111394248902798" stroke="#000000" stroke-width="1" fill="none"></path></g><g transform="translate(638 221.5) rotate(0 83 13)"><text x="0" y="18" font-family="Virgil" font-size="20px" fill="#000000" text-anchor="start" style="white-space: pre;" direction="ltr">openapi-validator</text></g><g><g transform="translate(487 265) rotate(0 -0.3601314871059742 43.749010175396705)"><path d="M0.6377899579703807 -0.4409388117492199 C0.6270103308061759 14.382345011581975, -0.32415130014220883 74.32592416877547, -0.9573819465935232 89.21605598405003 M-0.48650904343463486 -1.718035633256659 C-0.4859692636722078 12.694339945524309, -1.2929496016694852 71.89311114560502, -1.3580529321823267 87.20691062689758" stroke="#000000" stroke-width="1" fill="none"></path></g><g transform="translate(487 265) rotate(0 -0.3601314871059742 43.749010175396705)"><path d="M-12.089780477358573 60.65921540303536 C-8.674284970240816 63.31380674803796, -6.945926914508819 70.5641215003693, -2.6372273084614424 88.18059325770474 M-11.340229734330052 58.22313213279851 C-7.72287563041688 68.92338594263465, -3.951005543447967 77.54866930310969, -1.503203062796965 86.66495572769082" stroke="#000000" stroke-width="1" fill="none"></path></g><g transform="translate(487 265) rotate(0 -0.3601314871059742 43.749010175396705)"><path d="M8.430532840921586 60.850901880006035 C7.2160403720586315 63.57131097331853, 4.314851894655055 70.77837972588642, -2.6372273084614424 88.18059325770474 M9.180083583950108 58.414818609769185 C5.9896807423436895 69.193447520511, 2.954684140893546 77.75514587258611, -1.503203062796965 86.66495572769082" stroke="#000000" stroke-width="1" fill="none"></path></g></g><g><g transform="translate(722 259) rotate(0 -90.36656605526804 46.46807854083369)"><path d="M-0.08278623148798947 -0.17418015673756604 C-30.328852587193253 15.223430261264244, -150.6361665777862 77.53645701532562, -180.6503458790481 93.15407246872783 M-1.5853877323586494 -1.3112286843638867 C-31.508660213621333 14.149494951289766, -148.37377290007657 78.26167373659399, -178.27982292917557 94.24738576603121" stroke="#000000" stroke-width="1" fill="none"></path></g><g transform="translate(722 259) rotate(0 -90.36656605526804 46.46807854083369)"><path d="M-158.67470397241436 70.70969467937107 C-166.9886824447922 79.7819096318645, -173.69779604467976 89.74841578417623, -176.64740025472827 92.92230401155538 M-159.17907461524032 72.23439482740218 C-165.9991074082743 78.95664922263562, -171.43245192577695 87.76985894288129, -178.0727100450266 93.79341652025468" stroke="#000000" stroke-width="1" fill="none"></path></g><g transform="translate(722 259) rotate(0 -90.36656605526804 46.46807854083369)"><path d="M-148.89633545224433 88.75141054759122 C-160.93247337952803 91.16241478059268, -171.24821781614173 94.47445616574484, -176.64740025472827 92.92230401155538 M-149.4007060950703 90.27611069562234 C-159.5816713483115 90.69790353976208, -168.4269965130234 93.21579055276483, -178.0727100450266 93.79341652025468" stroke="#000000" stroke-width="1" fill="none"></path></g></g><g transform="translate(138 353) rotate(0 87.5 28)"><path d="M-0.09591902419924736 1.8927828781306744 C49.02246014494449 -2.70766698429361, 99.62337181530893 -2.8362092883326113, 176.75751375034451 0.94624288007617 M-0.8030668143182993 -0.8381939586251974 C52.82748457510024 -1.179317410569638, 107.34003021195531 -0.09936880646273494, 175.9629763122648 -0.17043066583573818 M176.81603406742215 1.7804685346782207 C175.50022378444672 12.677909380942584, 174.83145049095154 22.313703956454994, 173.73195539787412 54.21901078149676 M174.12250552140176 0.4640235844999552 C175.72306192673742 22.65273098833859, 175.6120073274523 43.970583060756326, 174.60263518057764 56.802801663056016 M175.13956629112363 57.00443882867694 C123.08284496795386 55.790573878679425, 67.80186903662978 53.622488422784954, -0.4834642522037029 54.69708187505603 M174.51657417975366 56.55223088897765 C133.394322081469 56.194868102204055, 91.13831716030836 57.66098232520744, -0.3761847261339426 55.18708478845656 M0.6121044047176838 54.89172012731433 C-1.3041688618063927 39.471281949430704, -1.2111089643836022 24.054578360170126, -1.3192871920764446 0.6879512779414654 M0.3805429693311453 55.18967258371413 C0.5022063506394625 38.49029210992157, -0.6618229495733976 22.56275650002062, 0.08065477572381496 -0.7133210357278585" stroke="#000000" stroke-width="1" fill="none"></path></g><g transform="translate(160.5 368) rotate(0 64.5 13)"><text x="0" y="18" font-family="Virgil" font-size="20px" fill="#000000" text-anchor="start" style="white-space: pre;" direction="ltr">openapi-types</text></g><g><g transform="translate(303 381) rotate(0 50.34543431475757 2.5934697587648543)"><path d="M-1.0597125582396985 0.21510121151804928 C15.825494482864936 1.0441823733349642, 84.57381912345689 5.022908386836449, 101.75058118775488 5.904514115303755 M0.5847996193449942 -0.7175745977740735 C17.339219068217403 -0.29635807780238493, 84.33395529431911 3.566012078148002, 101.19659084769897 4.25680927705951" stroke="#000000" stroke-width="1" fill="none"></path></g><g transform="translate(303 381) rotate(0 50.34543431475757 2.5934697587648543)"><path d="M72.88730035446893 14.348460728646998 C83.61771545687809 12.042879099346283, 92.60132878954133 6.217726959252541, 100.63859766292386 5.367786997528746 M73.4648067048223 13.157498635696058 C81.72881830357234 10.807096286072698, 88.98491272363599 8.533429720129927, 101.15299109871499 3.6533260713983324" stroke="#000000" stroke-width="1" fill="none"></path></g><g transform="translate(303 381) rotate(0 50.34543431475757 2.5934697587648543)"><path d="M73.91160834782877 -6.147167964334795 C84.45607527834792 -1.5627292687992074, 93.09489468057066 -0.48881548368940564, 100.63859766292386 5.367786997528746 M74.48911469818214 -7.338130057285735 C82.40984830284303 -3.5381779338175052, 89.35836634726104 0.34252628601128166, 101.15299109871499 3.6533260713983324" stroke="#000000" stroke-width="1" fill="none"></path></g></g><g transform="translate(390 467) rotate(0 84 31.5)"><path d="M-1.5904120691120625 1.2190118916332722 C39.98201575353742 1.3748614388704299, 83.19855902418495 0.4007635909318923, 168.40335173532367 -1.8083841912448406 M0.6114275399595499 0.2187813874334097 C46.88466992862523 -0.6192359568923711, 92.38495737649501 -1.4000464918464421, 167.70299034751952 -0.9529348853975534 M168.71038622781634 -0.9463970772922039 C168.19868987688795 23.653100754134357, 169.53843217978255 50.79872971959412, 167.44213755056262 62.421703208237886 M167.5070460382849 0.6193140503019094 C168.8300629894249 21.433451344631614, 168.73598891897126 44.54602575749159, 168.57852255739272 62.86236790381372 M168.67791349813342 62.5624683983624 C111.44582948461175 60.7723193821311, 53.966991778463125 61.08275980323553, 0.16901464387774467 61.50587462261319 M168.84472119249403 62.536682879552245 C107.7984503109008 62.32001804061234, 49.450049683824176 63.488552140668034, 0.6012505833059549 63.96690676175058 M-1.3022101409733295 64.01428507640958 C0.5634116562269628 45.60116893071681, 1.4490600260160864 32.628959309682244, 0.32507188245654106 -0.4551619403064251 M-0.2353492435067892 62.45666668377817 C0.45921078236773605 42.26235705334693, -1.1781410285644234 19.98745622113347, -0.7351121958345175 -0.600805127993226" stroke="#000000" stroke-width="1" fill="none"></path></g><g transform="translate(452 485.5) rotate(0 22 13)"><text x="0" y="18" font-family="Virgil" font-size="20px" fill="#000000" text-anchor="start" style="white-space: pre;" direction="ltr">input</text></g><g transform="translate(41 461) rotate(0 138 32.5)"><path d="M0.4511520953923449 1.513644683880283 C70.9423382607797 1.9005855668809333, 139.33866554445166 0.3843349823075213, 275.41518824999986 -1.006995455826281 M0.5569950451344498 0.7107740850238912 C96.92282264270337 1.2050788759337858, 193.93373764124962 1.7471944403934196, 276.4226335633297 -0.18199491102591828 M274.2402816899121 0.6374537460505962 C275.0221458346583 14.766723188571634, 277.5637035042979 30.265327805653218, 274.79110215976834 66.29235417768359 M275.9487241860479 0.8651847187429667 C275.15371037898586 16.650202023796737, 275.00252325711773 33.68930296227336, 276.90025315247476 65.11992310918868 M277.34195263591766 64.83583878261733 C171.41164067580846 66.36866922087621, 67.06284101943304 67.1619325066977, -0.7785518007864252 65.76994423847046 M276.77308359046094 64.7417175391214 C169.27947190026958 67.6031168086946, 63.44882648161221 67.00949635907494, 0.6277809491606482 64.64352333364624 M-1.4946919791400433 66.72347493097186 C1.730847982969135 44.62344329524785, 0.8792095466516912 28.32219019345939, 0.9937276728451252 0.22849590703845024 M0.3063290473073721 65.80944257415831 C0.5043437873013318 39.03287154529244, 0.12574348794296386 14.508553095161908, 0.32952473126351833 0.48830282129347324" stroke="#000000" stroke-width="1" fill="none"></path></g><g transform="translate(60 480.5) rotate(0 119 13)"><text x="0" y="18" font-family="Virgil" font-size="20px" fill="#000000" text-anchor="start" style="white-space: pre;" direction="ltr">openapi-types-normalized</text></g><g><g transform="translate(307 492) rotate(0 44.73322255411651 3.759412818821147)"><path d="M-0.03187182471156125 -0.08485065177083007 C15.248225302249192 1.0168982041378818, 75.98849813416601 6.060100993762413, 90.97418837025762 7.446820705384016 M-1.5077432620245963 -1.1750011892896146 C13.761383567778395 0.00953356417206419, 75.44384078565054 6.885230803710098, 90.53759180101567 8.69382682693191" stroke="#000000" stroke-width="1" fill="none"></path></g><g transform="translate(307 492) rotate(0 44.73322255411651 3.759412818821147)"><path d="M61.22199718269665 17.307996568154266 C67.42760987252615 13.81022930711457, 75.77690154355052 12.083106219063279, 89.04289982187562 10.41730175790377 M61.88680365483422 16.181213120814135 C72.99369761897339 13.65374382348855, 84.49356218872637 9.218193333637654, 90.84392084832304 9.50326940109022" stroke="#000000" stroke-width="1" fill="none"></path></g><g transform="translate(307 492) rotate(0 44.73322255411651 3.759412818821147)"><path d="M63.554036756888586 -3.080274418131994 C69.33940982353454 -1.6623597926931946, 77.12636792863312 1.5268183920384182, 89.04289982187562 10.41730175790377 M64.21884322902616 -4.207057865472125 C74.25506699623747 1.2881640355752575, 84.83862739939448 4.863565787345466, 90.84392084832304 9.50326940109022" stroke="#000000" stroke-width="1" fill="none"></path></g></g><g><g transform="translate(478 409) rotate(0 2.129235296696436 33.798005150784746)"><path d="M-0.3274927921593189 0.39542967751622204 C0.608406505237023 11.690414296338956, 3.883428193380435 57.062322666992735, 4.5859633855521675 68.03858398869633 M1.7014347626175734 -0.44257368712685996 C2.6206599023348343 10.514145604778703, 3.7186091259525464 55.19111885538634, 3.9455486993398514 66.46126583398319" stroke="#000000" stroke-width="1" fill="none"></path></g><g transform="translate(478 409) rotate(0 2.129235296696436 33.798005150784746)"><path d="M-6.320846380032822 39.49803143476113 C-2.8459832793486193 44.349210395902844, -3.481577766960216 48.93398894450602, 3.5923156711366024 67.54976143495179 M-7.2363316596674165 38.10809819322988 C-4.334728075792518 45.29094666127097, -1.478191861351978 52.737665997469165, 4.066810409640893 65.88528377556241" stroke="#000000" stroke-width="1" fill="none"></path></g><g transform="translate(478 409) rotate(0 2.129235296696436 33.798005150784746)"><path d="M14.194605077438712 39.01197188905867 C13.275860213691004 43.91128273956726, 8.245569489409688 48.60018203153911, 3.5923156711366024 67.54976143495179 M13.279119797804118 37.62203864752742 C11.28269589915871 44.77387230115692, 9.245112835029538 52.33654489327475, 4.066810409640893 65.88528377556241" stroke="#000000" stroke-width="1" fill="none"></path></g></g><g><g transform="translate(478 520) rotate(0 2.6988588471850505 57.70268788072747)"><path d="M0.9128003306686876 0.1847617082297801 C1.6936154940476018 19.38639240708978, 4.704550693805019 95.730936838539, 5.464835919439793 115.13194268998689 M-0.06711822506971665 -0.7638423402886838 C0.5077670387954761 18.565608931722426, 3.8216380817225826 96.95623900723797, 4.638809884665534 116.1692181017436" stroke="#000000" stroke-width="1" fill="none"></path></g><g transform="translate(478 520) rotate(0 2.6988588471850505 57.70268788072747)"><path d="M-6.4923534677568675 88.82308173521456 C-4.230838218167652 98.87479467512144, 2.3758041689936213 108.2433298710355, 6.014820410637185 117.57331727931275 M-6.149548095205784 88.38122014856931 C-3.3616038409947153 99.40201483740356, 1.5164668682036826 107.91456750219355, 4.272034764988348 115.5674161642976" stroke="#000000" stroke-width="1" fill="none"></path></g><g transform="translate(478 520) rotate(0 2.6988588471850505 57.70268788072747)"><path d="M14.010637370822355 87.95857664039089 C8.788094253843536 98.48178944668707, 7.911239060904124 108.16586503551417, 6.014820410637185 117.57331727931275 M14.353442743373439 87.51671505374564 C9.686122850159544 99.02149880955915, 7.109920728613431 107.84835961071424, 4.272034764988348 115.5674161642976" stroke="#000000" stroke-width="1" fill="none"></path></g></g><g transform="translate(269 617) rotate(0 296 78.5)"><path d="M-0.5575087741017342 0.4939653351902962 C168.75698641091586 -0.5556219299435619, 338.2041766032577 -1.5819538791775707, 591.8220722481608 0.04949097186326981 M0.11878783479332924 -0.3924266912043095 C191.19519695714118 -1.9478547869026663, 381.64482156410816 -1.812499099761248, 592.1511794067919 -0.018854746967554094 M590.2845478765666 1.4105497486889362 C594.1312575644068 56.82877723220736, 591.8467284744792 113.72856065444648, 592.2645787708461 156.48184751346707 M591.2826054040343 0.6454581376165152 C591.5766213899292 48.21914904806763, 590.8419547444023 98.27688498720526, 592.7780073229223 156.19148478470743 M591.7921218678355 157.71468228846788 C404.0358239904046 155.92397617667913, 217.77149846404785 156.23538531631232, 0.18792298287153245 156.23030619174241 M591.949524424225 157.29348176941275 C436.10505304411055 155.09143235847353, 279.9393147267401 154.95628175899387, 0.3916038013994694 156.90709735378624 M-0.7451001890003681 158.26877676323056 C0.2740187195129693 97.25737891104072, -1.5205125066451728 38.70824988819659, 1.7127367965877056 -0.48209191486239433 M0.5916436854749918 156.2323415633291 C0.6832872213982046 102.93032536935061, 1.122750061955303 47.75285713374615, -0.706972187384963 -0.25445725955069065" stroke="#000000" stroke-width="1" fill="none"></path></g><g transform="translate(279 633) rotate(0 95 13)"><text x="0" y="18" font-family="Virgil" font-size="20px" fill="#000000" text-anchor="start" style="white-space: pre;" direction="ltr">generator functions</text></g><g transform="translate(10 132) rotate(0 428.5 234.5)"><path d="M-0.5429472491145134 -0.6066620066761971 C297.82839151080697 1.2489251308217648, 593.7906924899668 1.5807937316671017, 856.7996923401952 -0.2510464385151863 M-0.056179795414209366 0.1450955606997013 C271.7231897177175 3.2781750194951895, 543.7196635704488 3.2990048639699823, 856.9663278482855 0.21156458631157876 M856.9891728170759 -0.5837981302746355 C855.8476498807736 97.73202573603805, 856.9236689726207 196.08195115346768, 857.4336752627341 468.34649864163606 M857.2357257767798 0.084430138476637 C858.7145742079159 158.44727926093378, 858.193678748084 315.91645326354535, 856.708913420038 469.1914458545736 M856.346504445374 469.7160826489329 C667.4208354437724 465.5428999680504, 478.147163817659 466.35406849565356, 0.2725821450352669 468.4127229973674 M857.2391357086599 469.11979272142054 C562.3272464139387 472.38082426507026, 267.5042876306921 472.3163742633536, 0.21267332062125208 469.3538597084582 M-0.37575587922653547 469.14314105590205 C0.6769413039827356 286.4349948357941, 1.4639232630538948 102.70239116172498, 0.7222732056041299 -0.8470714830393372 M0.04175430854613482 468.55840063047435 C2.2942785347880665 363.779188361329, 2.537011468785507 259.380904803002, 0.05762261454236208 -0.3843414256393641" stroke="#000000" stroke-width="1" fill="none"></path></g><g transform="translate(40.5 158) rotate(0 56.5 13)"><text x="0" y="18" font-family="Virgil" font-size="20px" fill="#000000" text-anchor="start" style="white-space: pre;" direction="ltr">core library</text></g><g transform="translate(280 683) rotate(0 80.5 25)"><path d="M0.749993909150362 -1.044011402875185 C34.7454068703577 3.209855498764664, 69.93819608278574 0.6798239369131625, 159.34500383213162 -0.3200191743671894 M0.15645352564752102 0.16813653148710728 C51.27170609142632 0.8218286238424479, 103.06778102964164 -0.705095330644399, 161.61518464051187 -0.4222178515046835 M162.33418821170926 -1.4008325822651386 C161.6140369931236 10.065686712041499, 160.9307373324409 21.118215985596184, 160.33153044059873 50.305898141115904 M160.02031931839883 -0.16618156991899014 C161.40836232248694 10.665882375091314, 161.37781309429556 20.04701286368072, 161.17946509085596 50.95940070785582 M162.07605539634824 48.27003712579608 C126.03383987862617 50.10715160151943, 87.2322135027498 49.81101438781246, -0.7507104985415936 48.45352489873767 M160.38588455878198 50.03353696502745 C128.85472376365215 49.720873425919564, 95.61363827064633 50.0058963403292, 0.9709698911756277 49.687616938725114 M-0.9119777791202068 51.92062408849597 C-1.2426901245489717 30.948462737724185, 1.4374059056863189 10.077692225575447, -1.9572609774768353 1.055356215685606 M-0.4329469446092844 49.21803676523268 C0.18700726609677076 36.66875036805868, 1.2402020869776607 24.686230709776282, 0.3563372250646353 0.7541910950094461" stroke="#000000" stroke-width="1" fill="none"></path></g><g transform="translate(282.5 695) rotate(0 78 13)"><text x="0" y="18" font-family="Virgil" font-size="20px" fill="#000000" text-anchor="start" style="white-space: pre;" direction="ltr">typescript-fetch</text></g><g transform="translate(454 679) rotate(0 90.5 26)"><path d="M-1.5639264695346355 -0.2946109063923359 C41.0348170971498 2.595412705112249, 84.76709414161743 1.4963084198720755, 182.50838219001892 -0.8833055980503559 M0.1323367115110159 0.025401348248124123 C72.1455437121913 0.2149843589030207, 144.82364290952685 0.5409256235323847, 181.34030297957364 0.7651269976049662 M179.47690616920593 -1.2623062618076801 C180.28898553393785 12.769310180842878, 179.3007961943001 24.597263751178982, 181.22754811123016 51.97487718984485 M180.3263244982809 -0.990143483504653 C182.12950749054554 13.782611025497317, 181.10641408815982 27.81274506635964, 180.70510337315503 51.04492556490004 M181.81762360408905 51.50899298116565 C132.5050203004852 55.38004971457645, 86.18947586528957 52.85688079310581, -0.5071853511035442 53.65591688081622 M181.47336671315136 51.88461052812636 C119.8228305751458 50.97152129689231, 58.22378331348301 50.49112329760566, 0.35590497218072414 51.888912135735154 M1.1370588429272175 50.96740693971515 C-0.5352985703200102 39.45632644295692, 0.45489801533520224 23.311651433259247, 1.4400460608303547 0.4634023420512676 M0.6979140397161245 51.00861113704741 C0.6296308830380439 34.58359577618539, 0.2988020375370979 15.21881639249623, 0.6573928352445364 -0.9904499109834433" stroke="#000000" stroke-width="1" fill="none"></path></g><g transform="translate(458 692) rotate(0 87.5 13)"><text x="0" y="18" font-family="Virgil" font-size="20px" fill="#000000" text-anchor="start" style="white-space: pre;" direction="ltr">typescript-angular</text></g><g transform="translate(662 680) rotate(0 90 23)"><path d="M1.3147856704890728 -1.9808998219668865 C63.149825543165214 2.8302268136292694, 128.1920912154019 1.9638750899583102, 178.19777448102832 0.7719737179577351 M0.25294392742216587 -0.14367940463125706 C53.94151488505304 0.9433487847447395, 107.82459916360676 0.8190838888287544, 180.45369672216475 0.3944756146520376 M179.08522279188037 -1.2106131426990032 C178.69202974084766 11.630242751911283, 180.65650882963092 23.56935380399227, 178.29665322229266 47.74769328907132 M180.77638339437544 0.802829897031188 C179.16543837804346 11.267828984558582, 178.9016045572236 23.0218047413975, 179.06709628738463 45.804888343438506 M180.90092892572284 46.74017356708646 C131.14418666809797 46.258380975946785, 81.14911356940866 46.225639786943795, 0.2473195306956768 44.361066211014986 M180.99694543518126 45.55310163460672 C134.52535696141422 47.00936930552125, 90.18395075388253 47.08139728680253, -0.46607053838670254 46.30904153548181 M-1.4735695607960224 47.323730815202 C1.5081475337967276 32.606284740194674, -1.511008326150477 22.311556713283057, 0.7947685234248638 0.2713942416012287 M0.9591246787458658 45.907367741689086 C0.3865171032771468 30.12945113554597, 0.7914416747912765 15.359139128401875, -0.5602935012429953 0.07240149937570095" stroke="#000000" stroke-width="1" fill="none"></path></g><g transform="translate(682.5 690) rotate(0 69.5 13)"><text x="0" y="18" font-family="Virgil" font-size="20px" fill="#000000" text-anchor="start" style="white-space: pre;" direction="ltr">typescript-koa</text></g><g transform="translate(543 10) rotate(0 140 32.5)"><path d="M-0.032298582384772595 -1.2927102953581138 C59.621326384149604 -0.6826048729980736, 119.15468872598153 -2.4610242056036737, 281.453457289711 0.9257516421278192 M-0.2586680322440527 0.7048555473302863 C57.240991637025864 0.9277956844029908, 115.37292424004593 0.6573211632458453, 279.5431605499289 -0.7517743802768923 M280.24415873363614 1.7862313501536846 C278.889598953817 22.190789404325187, 280.6504750133492 43.45357423461974, 278.15996562317014 64.7005960457027 M280.6301820036024 -0.48450410924851894 C280.33905909536406 18.702012437395755, 280.8101158547215 34.86594025418163, 280.063676988706 64.75192182697356 M278.51157426888926 65.76513355254848 C224.07655953086714 64.56724977942989, 165.82906781023246 64.24723008480952, 0.32269986350398505 64.1235112008651 M279.25001651816643 64.34920841301552 C200.51845265785434 63.018061133706816, 120.43661088290372 63.290504091530686, -0.6036679732002876 64.94956564891389 M-0.6039207093417645 65.14343936368823 C0.20593078872188925 41.707402487285435, 0.3258080079220235 22.254348246380687, -1.2439228408038616 -1.3994484432041645 M-0.1028160098940134 65.96838640607893 C1.2187292103655636 47.63382008764893, -0.5172414655797184 31.614677734673016, -0.6614970806986094 0.8744175974279642" stroke="#000000" stroke-width="1" fill="none"></path></g><g transform="translate(556.5 32.5) rotate(0 132.5 13)"><text x="0" y="18" font-family="Virgil" font-size="20px" fill="#000000" text-anchor="start" style="white-space: pre;" direction="ltr">ajv (json-schema-validator)</text></g><g transform="translate(255 12) rotate(0 111 30.5)"><path d="M-1.2203173036558879 -0.9507439733764155 C87.27648090700498 1.6388518539399572, 175.65942176055984 0.877035691815276, 222.5918507201289 0.7569065417632117 M-0.3993532420205108 0.40690642791920817 C86.96662430083543 -0.7863037025405978, 173.906688122989 -0.9426481902232979, 221.83268596590256 0.6602264816923967 M220.1138451807201 1.420718539506197 C222.0650647806935 18.170316227711737, 220.79062937973066 38.53306165151298, 221.2100946418941 59.4784588702023 M222.51813184656203 0.7423653956502676 C222.5404219912924 23.217252648808063, 221.91893359893933 46.79984215721488, 221.3725997749716 61.763737654313445 M222.25437781252865 60.42960296962333 C145.8259592000643 63.08278967210918, 72.33876069094312 61.819445238973145, 1.3482693567205173 60.5180110561039 M222.01627248442168 60.88209151906506 C132.98887552412796 60.949641342614115, 45.321293976188514 60.592017017805254, -0.2208143417601816 60.42703129427227 M-0.42689602449536324 62.30200158432126 C0.8546930667944252 37.02344441916793, -0.8403890016488731 13.94812288023531, 1.9152259342372417 1.8710715658962727 M0.056715721264481544 60.724581157788634 C-0.4532557753659785 47.199401686899364, 1.011738833989948 34.24273990094662, -0.8957735951989889 0.11278614960610867" stroke="#000000" stroke-width="1" fill="none"></path></g><g transform="translate(274.5 29.5) rotate(0 97 13)"><text x="0" y="18" font-family="Virgil" font-size="20px" fill="#000000" text-anchor="start" style="white-space: pre;" direction="ltr">nodejs core modules</text></g><g><g transform="translate(412 64) rotate(0 34.39550202190412 76.46855722763111)"><path d="M0.9548445157706735 -0.7003792338073254 C12.25840611582001 24.888283414393666, 57.625980243335164 126.92565936520697, 68.79400488659739 152.40988094285132 M-0.0030008427891881073 1.5463177231047305 C11.12690930847389 27.38589600981213, 57.06600100213351 128.377707320163, 68.26281198843382 153.63749368906952" stroke="#000000" stroke-width="1" fill="none"></path></g><g transform="translate(412 64) rotate(0 34.39550202190412 76.46855722763111)"><path d="M46.17872417684594 133.45530252454785 C54.131801380685225 140.09859244541565, 61.76065418457638 149.27610445166047, 70.01385287552141 154.13215429381466 M46.469888975508006 132.27129874115792 C55.43322272811874 140.6959173837871, 63.579912347661505 148.6832964616816, 68.24288167974912 153.58156316959298" stroke="#000000" stroke-width="1" fill="none"></path></g><g transform="translate(412 64) rotate(0 34.39550202190412 76.46855722763111)"><path d="M64.89581313833185 125.04158852930995 C65.63801367237568 135.03988149001768, 66.13466468942246 147.42346395488522, 70.01385287552141 154.13215429381466 M65.18697793699391 123.85758474592002 C66.88596540436932 135.49371786754688, 67.76850445816014 146.74648107672084, 68.24288167974912 153.58156316959298" stroke="#000000" stroke-width="1" fill="none"></path></g></g><g><g transform="translate(694 59) rotate(0 4.154483472495372 80.18370775070973)"><path d="M0.47861964181065564 1.048729842156172 C2.1573709435760975 27.419484028468528, 7.529549903422594 132.5367214453717, 9.038210720568895 158.86969258114695 M-0.7292437755782157 0.5537090639490634 C0.8853306708019226 26.973476946276303, 6.481444733766839 133.26207699241428, 8.11022588524036 159.8137064374704" stroke="#000000" stroke-width="1" fill="none"></path></g><g transform="translate(694 59) rotate(0 4.154483472495372 80.18370775070973)"><path d="M-1.9760018171290206 132.31013100234017 C-2.9292837217525562 138.9776703206792, -0.10427589179161734 145.88144727750912, 7.836545544741675 160.98999022540636 M-2.779160709447627 133.02723989089176 C-0.000390200238446603 141.1849123110057, 3.317652673856033 149.64670352638282, 7.510047678900882 160.61150822450406" stroke="#000000" stroke-width="1" fill="none"></path></g><g transform="translate(694 59) rotate(0 4.154483472495372 80.18370775070973)"><path d="M18.51254730021883 131.15282488386345 C13.184860023403479 138.14952469219293, 11.629240345733535 145.30074362201526, 7.836545544741675 160.98999022540636 M17.709388407900224 131.86993377241504 C13.948155825924452 140.43470589802607, 10.715264319956642 149.26652997402027, 7.510047678900882 160.61150822450406" stroke="#000000" stroke-width="1" fill="none"></path></g></g><g transform="translate(649 347) rotate(0 96 32.5)"><path d="M1.71591292694211 0.8328964225947857 C63.40025806501507 0.19375834748148923, 127.07055367305874 -1.0892181606590747, 191.19744323566556 -0.2175711877644062 M-0.9502967242151499 0.2268254105001688 C72.25286632739008 -0.1112829967588187, 145.48084589205683 -0.46327256403863437, 192.2654915805906 -0.4559133108705282 M193.7687809355557 0.8245402090251446 C193.59443044075744 22.1851335791871, 192.15699564823882 47.2259752098471, 191.76934276893735 66.944799374789 M192.39810428582132 0.8919808808714151 C192.8283566224389 24.176879721693698, 192.48774117110298 48.41294471547008, 191.86923888884485 65.03040342964232 M193.30305229499936 64.63733191415668 C143.65294478014113 62.00925148531795, 91.37575062587857 64.86153651282191, -1.981919776648283 63.75046141073108 M191.16837075911462 65.4249132219702 C139.96766668520866 65.37444219864905, 84.97915705405174 65.64152840651572, -0.46556093730032444 65.90799557603896 M0.9780287630856037 63.42642290517688 C1.7280502333305776 45.19925626087934, -1.0129810557700694 26.323968736454844, -1.0650113932788372 -1.1649649627506733 M0.02596900425851345 64.54980456270278 C0.23914442704990513 38.24443850014359, -0.8170433814637362 13.079813785850995, -0.7707072142511606 -0.8079391177743673" stroke="#000000" stroke-width="1" fill="none"></path></g><g transform="translate(679.5 353.5) rotate(0 63.5 25.5)"><text x="0" y="18.5" font-family="Virgil" font-size="20px" fill="#000000" text-anchor="start" style="white-space: pre;" direction="ltr">generation-lib</text><text x="0" y="44" font-family="Virgil" font-size="20px" fill="#000000" text-anchor="start" style="white-space: pre;" direction="ltr">(think tslib)</text></g><g><g transform="translate(658 379) rotate(0 -54.94202968403698 1.2232214763481295)"><path d="M-0.059503369778394655 0.51283742710948 C-18.35151953424017 0.9005626929303012, -91.61086243515214 1.1593927713731926, -109.82455599829555 1.4574062757194044 M-1.5498813682515173 -0.2635268689971417 C-19.455727307867882 0.35712190958050394, -89.42268408255961 2.0366507645665357, -107.54549336102791 2.7099698216933756" stroke="#000000" stroke-width="1" fill="none"></path></g><g transform="translate(658 379) rotate(0 -54.94202968403698 1.2232214763481295)"><path d="M-78.81905891023148 -9.762399824530855 C-88.85168985256196 -5.708981854906634, -95.63905149320021 -0.48603125432099326, -106.25799346757121 3.61732686993666 M-80.38464149668384 -7.999430466637984 C-87.22313765481609 -6.385916690777723, -93.6863479379054 -2.716320344422914, -106.91003873054869 2.7404376839566975" stroke="#000000" stroke-width="1" fill="none"></path></g><g transform="translate(658 379) rotate(0 -54.94202968403698 1.2232214763481295)"><path d="M-78.20607189626408 10.74965149430478 C-88.27036548185225 8.77300702524623, -95.23792185725492 7.966199143757111, -106.25799346757121 3.61732686993666 M-79.77165448271644 12.512620852197651 C-86.90064248018568 8.968449231296029, -93.5180826177257 7.477135774824307, -106.91003873054869 2.7404376839566975" stroke="#000000" stroke-width="1" fill="none"></path></g></g></svg>