<svg version="1.1" xmlns="http://www.w3.org/2000/svg" viewBox="0 0 860 640" width="860" height="640">
  <!-- svg-source:excalidraw -->
  
  <defs>
    <style class="style-fonts">
      @font-face {
        font-family: "Virgil";
        src: url("https://excalidraw.com/Virgil.woff2");
      }
      @font-face {
        font-family: "Cascadia";
        src: url("https://excalidraw.com/Cascadia.woff2");
      }
      @font-face {
        font-family: "Assistant";
        src: url("https://excalidraw.com/Assistant-Regular.woff2");
      }
    </style>
    
  </defs>
  <rect x="0" y="0" width="860" height="640" fill="#ffffff"></rect><g stroke-linecap="round" transform="translate(10 10) rotate(0 420 179.5)"><path d="M0 0 C239.75 -1.07, 480.01 -1.02, 840 0 M0 0 C198.64 0.84, 397.52 1.09, 840 0 M840 0 C837.95 118.35, 838.38 237.2, 840 359 M840 0 C841.03 105.46, 841.94 212.22, 840 359 M840 359 C612.24 356.98, 384.38 356.51, 0 359 M840 359 C632.06 360.8, 423.46 361.16, 0 359 M0 359 C1.79 222.99, 1.51 88.87, 0 0 M0 359 C1.01 286.06, 0.45 212.59, 0 0" stroke="#000000" stroke-width="1" fill="none"></path></g><g transform="translate(30 30) rotate(0 133.35000610351562 11.5)"><text x="0" y="0" font-family="Helvetica, Segoe UI Emoji" font-size="20px" fill="#000000" text-anchor="start" style="white-space: pre;" direction="ltr" dominant-baseline="text-before-edge">(typescript) template functions</text></g><g stroke-linecap="round" transform="translate(50 90) rotate(0 108.5 30)"><path d="M0 0 C46.78 0.66, 92.7 3.2, 217 0 M0 0 C81.22 1.72, 163.11 1.48, 217 0 M217 0 C218.43 20.46, 215.38 39.11, 217 60 M217 0 C215.92 16.13, 215.77 31.14, 217 60 M217 60 C157.23 60.17, 96.89 60.46, 0 60 M217 60 C134.12 60.25, 50.99 59.69, 0 60 M0 60 C-2.45 39.2, 0.5 20.12, 0 0 M0 60 C0.15 38.74, -1.22 17.28, 0 0" stroke="#000000" stroke-width="1" fill="none"></path></g><g transform="translate(90.71666717529298 108.5) rotate(0 67.78333282470703 11.5)"><text x="67.78333282470703" y="0" font-family="Helvetica, Segoe UI Emoji" font-size="20px" fill="#1e1e1e" text-anchor="middle" style="white-space: pre;" direction="ltr" dominant-baseline="text-before-edge">typescript-fetch</text></g><g stroke-linecap="round" transform="translate(310 90) rotate(0 122 30)"><path d="M0 0 C55.59 0.63, 112.81 2.37, 244 0 M0 0 C77.37 -0.71, 155.79 -1.92, 244 0 M244 0 C242.7 20.45, 243.35 38.27, 244 60 M244 0 C243.99 21.83, 243.04 44.79, 244 60 M244 60 C170.33 59.14, 95.71 60.26, 0 60 M244 60 C180.59 58.01, 115.68 58.23, 0 60 M0 60 C-0.62 45.34, 1.39 27.05, 0 0 M0 60 C-0.87 45.95, 0.24 32.78, 0 0" stroke="#000000" stroke-width="1" fill="none"></path></g><g transform="translate(352.53333282470703 108.5) rotate(0 79.46666717529297 11.5)"><text x="79.46666717529297" y="0" font-family="Helvetica, Segoe UI Emoji" font-size="20px" fill="#1e1e1e" text-anchor="middle" style="white-space: pre;" direction="ltr" dominant-baseline="text-before-edge">typescript-angular</text></g><g stroke-linecap="round" transform="translate(590 90) rotate(0 110 30)"><path d="M0 0 C60.26 0.55, 117.78 -0.25, 220 0 M0 0 C63.55 1.23, 128.51 2.38, 220 0 M220 0 C222.04 21.85, 218.93 40.43, 220 60 M220 0 C218.91 15.6, 220.19 30.5, 220 60 M220 60 C160.09 60.64, 101.21 58.7, 0 60 M220 60 C161.74 59.46, 104.06 58.36, 0 60 M0 60 C1.15 43.18, 1.56 22.14, 0 0 M0 60 C-1.13 36.84, -0.62 12.17, 0 0" stroke="#000000" stroke-width="1" fill="none"></path></g><g transform="translate(637.7666664123535 108.5) rotate(0 62.233333587646484 11.5)"><text x="62.233333587646484" y="0" font-family="Helvetica, Segoe UI Emoji" font-size="20px" fill="#1e1e1e" text-anchor="middle" style="white-space: pre;" direction="ltr" dominant-baseline="text-before-edge">typescript-koa</text></g><g stroke-linecap="round" transform="translate(310 250) rotate(0 120 30)"><path d="M0 0 C72.42 -0.45, 146.05 -2.11, 240 0 M0 0 C52.4 -0.05, 105.11 0.67, 240 0 M240 0 C241.68 10.68, 240.92 25.35, 240 60 M240 0 C239.99 20.28, 240.06 41.33, 240 60 M240 60 C190.74 59.51, 142.04 61.54, 0 60 M240 60 C163.93 59.5, 88.07 59.38, 0 60 M0 60 C1.47 40.21, -0.02 18.87, 0 0 M0 60 C-0.25 41.55, -1.03 23.01, 0 0" stroke="#000000" stroke-width="1" fill="none"></path></g><g transform="translate(391.65833282470703 268.5) rotate(0 38.34166717529297 11.5)"><text x="38.34166717529297" y="0" font-family="Helvetica, Segoe UI Emoji" font-size="20px" fill="#1e1e1e" text-anchor="middle" style="white-space: pre;" direction="ltr" dominant-baseline="text-before-edge">common</text></g><g stroke-linecap="round"><g transform="translate(330 250) rotate(0 -59.24982923237141 -49.85453322939577)"><path d="M-0.09 1.04 C-19.83 -15.79, -99.32 -83.27, -118.86 -100 M-1.59 0.54 C-21.49 -16.19, -100.68 -81.62, -120 -98.62" stroke="#1e1e1e" stroke-width="1" fill="none"></path></g><g transform="translate(330 250) rotate(0 -59.24982923237141 -49.85453322939577)"><path d="M-96.56 -89.93 C-101.14 -92.87, -109.61 -92.66, -120 -98.62 M-96.56 -89.93 C-104.24 -93.44, -113.11 -96.17, -120 -98.62" stroke="#1e1e1e" stroke-width="1" fill="none"></path></g><g transform="translate(330 250) rotate(0 -59.24982923237141 -49.85453322939577)"><path d="M-107.62 -76.89 C-109.36 -83.29, -114.88 -86.57, -120 -98.62 M-107.62 -76.89 C-111.7 -84.69, -116.89 -91.76, -120 -98.62" stroke="#1e1e1e" stroke-width="1" fill="none"></path></g></g><mask></mask><g stroke-linecap="round"><g transform="translate(430 250) rotate(0 0 -50)"><path d="M-0.27 0.64 C-0.18 -15.94, 0.89 -82.87, 1.08 -99.84 M1.79 -0.08 C1.76 -16.4, 0.9 -81.49, 0.7 -98.21" stroke="#1e1e1e" stroke-width="1" fill="none"></path></g><g transform="translate(430 250) rotate(0 0 -50)"><path d="M9.54 -74.83 C7.6 -81.19, 3.73 -89.66, 0.7 -98.21 M9.54 -74.83 C7.43 -79.35, 6.15 -84.84, 0.7 -98.21" stroke="#1e1e1e" stroke-width="1" fill="none"></path></g><g transform="translate(430 250) rotate(0 0 -50)"><path d="M-7.56 -74.62 C-3.55 -81.01, -1.47 -89.56, 0.7 -98.21 M-7.56 -74.62 C-6.17 -79.21, -3.94 -84.75, 0.7 -98.21" stroke="#1e1e1e" stroke-width="1" fill="none"></path></g></g><mask></mask><g stroke-linecap="round"><g transform="translate(530 250) rotate(0 68.36416443781138 -49.987186308577634)"><path d="M0.9 0.81 C23.77 -15.97, 115.3 -83.37, 137.76 -100 M-0.08 0.2 C22.67 -16.45, 114.34 -81.65, 137.35 -98.48" stroke="#1e1e1e" stroke-width="1" fill="none"></path></g><g transform="translate(530 250) rotate(0 68.36416443781138 -49.987186308577634)"><path d="M123.28 -77.81 C129.38 -83.34, 132.84 -93.97, 137.35 -98.48 M123.28 -77.81 C129.01 -85.35, 133.44 -93.47, 137.35 -98.48" stroke="#1e1e1e" stroke-width="1" fill="none"></path></g><g transform="translate(530 250) rotate(0 68.36416443781138 -49.987186308577634)"><path d="M113.29 -91.69 C122.92 -92.5, 129.84 -98.33, 137.35 -98.48 M113.29 -91.69 C122.96 -93.92, 131.24 -96.68, 137.35 -98.48" stroke="#1e1e1e" stroke-width="1" fill="none"></path></g></g><mask></mask><g stroke-linecap="round" transform="translate(10 430) rotate(0 420 100)"><path d="M0 0 C322.64 0.58, 645.43 0.3, 840 0 M0 0 C294.68 0.93, 589.77 0.97, 840 0 M840 0 C840.26 69.71, 839.76 143.68, 840 200 M840 0 C840.08 41.33, 839.98 81.71, 840 200 M840 200 C658.43 202.45, 477.76 202.68, 0 200 M840 200 C548.03 200.81, 256.79 200.59, 0 200 M0 200 C0.05 123.8, -3.14 48.65, 0 0 M0 200 C0.52 123.78, -0.27 46.28, 0 0" stroke="#1e1e1e" stroke-width="1" fill="none"></path></g><g stroke-linecap="round" transform="translate(250 490) rotate(0 101.5 36)"><path d="M0 0 C79.84 -1.14, 161.8 -0.36, 203 0 M0 0 C78.67 2.49, 155.59 1.93, 203 0 M203 0 C204.24 22.73, 201.29 44.63, 203 72 M203 0 C203.71 18.41, 202.77 35.16, 203 72 M203 72 C153.9 72.62, 105.22 72.53, 0 72 M203 72 C140.14 73.24, 77.9 72.76, 0 72 M0 72 C-0.95 49.35, -1.4 27.25, 0 0 M0 72 C-0.33 45.29, -0.22 19.94, 0 0" stroke="#1e1e1e" stroke-width="1" fill="none"></path></g><g transform="translate(280.3833312988281 503) rotate(0 71.11666870117188 23)"><text x="71.11666870117188" y="0" font-family="Helvetica, Segoe UI Emoji" font-size="20px" fill="#1e1e1e" text-anchor="middle" style="white-space: pre;" direction="ltr" dominant-baseline="text-before-edge">typescript-fetch-</text><text x="71.11666870117188" y="23" font-family="Helvetica, Segoe UI Emoji" font-size="20px" fill="#1e1e1e" text-anchor="middle" style="white-space: pre;" direction="ltr" dominant-baseline="text-before-edge">runtime</text></g><g stroke-linecap="round" transform="translate(510 490) rotate(0 101.5 36)"><path d="M0 0 C55.86 -2.16, 113.39 -2.69, 203 0 M0 0 C62.93 -1.54, 126.02 -0.32, 203 0 M203 0 C202.42 17.91, 204 38, 203 72 M203 0 C202.62 17.39, 203.13 35.35, 203 72 M203 72 C151.29 71.9, 95.69 71.77, 0 72 M203 72 C127.74 72.6, 51.56 72.41, 0 72 M0 72 C-1.39 49.92, -1.58 23.53, 0 0 M0 72 C0.27 47.64, -1.26 24.09, 0 0" stroke="#1e1e1e" stroke-width="1" fill="none"></path></g><g transform="translate(545.9333343505859 503) rotate(0 65.56666564941406 23)"><text x="65.56666564941406" y="0" font-family="Helvetica, Segoe UI Emoji" font-size="20px" fill="#1e1e1e" text-anchor="middle" style="white-space: pre;" direction="ltr" dominant-baseline="text-before-edge">typescript-koa-</text><text x="65.56666564941406" y="23" font-family="Helvetica, Segoe UI Emoji" font-size="20px" fill="#1e1e1e" text-anchor="middle" style="white-space: pre;" direction="ltr" dominant-baseline="text-before-edge">runtime</text></g><g transform="translate(30 450) rotate(0 78.90833282470703 11.5)"><text x="0" y="0" font-family="Helvetica, Segoe UI Emoji" font-size="20px" fill="#1e1e1e" text-anchor="start" style="white-space: pre;" direction="ltr" dominant-baseline="text-before-edge">runtime packages</text></g><g stroke-linecap="round"><g transform="translate(450.24928632370325 370) rotate(0 -0.10183148008684384 29.5)"><path d="M0 0 C-0.86 23.43, 0.87 44.92, -0.2 59 M0 0 C0.81 14.2, 0.69 28.37, -0.2 59" stroke="#1e1e1e" stroke-width="1" fill="none"></path></g><g transform="translate(450.24928632370325 370) rotate(0 -0.10183148008684384 29.5)"><path d="M8.63 23.46 C5 14.66, 3.45 3.99, 0 0 M8.63 23.46 C6.75 17.61, 4.57 11.64, 0 0" stroke="#1e1e1e" stroke-width="1" fill="none"></path></g><g transform="translate(450.24928632370325 370) rotate(0 -0.10183148008684384 29.5)"><path d="M-8.47 23.52 C-5.43 14.85, -0.32 4.16, 0 0 M-8.47 23.52 C-6.18 17.51, -4.18 11.52, 0 0" stroke="#1e1e1e" stroke-width="1" fill="none"></path></g></g><mask></mask></svg>