<svg version="1.1" xmlns="http://www.w3.org/2000/svg" viewBox="0 0 860 1220" width="860" height="1220">
  <!-- svg-source:excalidraw -->
  
  <defs>
    <style class="style-fonts">
      @font-face {
        font-family: "Virgil";
        src: url("https://excalidraw.com/Virgil.woff2");
      }
      @font-face {
        font-family: "Cascadia";
        src: url("https://excalidraw.com/Cascadia.woff2");
      }
      @font-face {
        font-family: "Assistant";
        src: url("https://excalidraw.com/Assistant-Regular.woff2");
      }
    </style>
    
  </defs>
  <rect x="0" y="0" width="860" height="1220" fill="#ffffff"></rect><g stroke-linecap="round" transform="translate(370 190) rotate(0 80 30)"><path d="M0 0 C51.87 -1.93, 103.33 0.62, 160 0 M0 0 C40.11 1.89, 82.19 0.92, 160 0 M160 0 C161.28 13.66, 159.88 23.1, 160 60 M160 0 C160.42 12.99, 159.01 27.77, 160 60 M160 60 C107.08 60.32, 50.2 60.07, 0 60 M160 60 C118.58 59.86, 75.45 60.38, 0 60 M0 60 C0.33 40.73, -0.34 18.38, 0 0 M0 60 C-1.3 37.37, -1.04 15.08, 0 0" stroke="#000000" stroke-width="1" fill="none"></path></g><g transform="translate(406.09166717529297 208.5) rotate(0 43.90833282470703 11.5)"><text x="43.90833282470703" y="0" font-family="Helvetica, Segoe UI Emoji" font-size="20px" fill="#1e1e1e" text-anchor="middle" style="white-space: pre;" direction="ltr" dominant-baseline="text-before-edge">file-loader</text></g><g stroke-linecap="round" transform="translate(370 310) rotate(0 81.5 30)"><path d="M0 0 C49.01 -1.74, 99.1 0.77, 163 0 M0 0 C52.51 0.27, 105.21 1.22, 163 0 M163 0 C161.75 12.51, 164.82 28.52, 163 60 M163 0 C162.44 16.4, 163.71 32.58, 163 60 M163 60 C102.77 61.14, 41.16 59.82, 0 60 M163 60 C107.75 60.38, 51.74 60.23, 0 60 M0 60 C1.43 38.43, 1.73 17.01, 0 0 M0 60 C-0.25 42.65, -1.28 23.58, 0 0" stroke="#000000" stroke-width="1" fill="none"></path></g><g transform="translate(384.8000030517578 328.5) rotate(0 66.69999694824219 11.5)"><text x="66.69999694824219" y="0" font-family="Helvetica, Segoe UI Emoji" font-size="20px" fill="#1e1e1e" text-anchor="middle" style="white-space: pre;" direction="ltr" dominant-baseline="text-before-edge">openapi-loader</text></g><g stroke-linecap="round" transform="translate(590 190) rotate(0 110 30)"><path d="M0 0 C72.72 -1.65, 143.64 0.31, 220 0 M0 0 C67.91 -0.84, 134.58 -1.97, 220 0 M220 0 C220.32 11.18, 220.37 27.43, 220 60 M220 0 C220.72 22.39, 220.25 47.24, 220 60 M220 60 C134.97 59.41, 50.2 61.22, 0 60 M220 60 C134.98 60.38, 50.4 60.54, 0 60 M0 60 C-0.34 36.65, -0.94 16.54, 0 0 M0 60 C-0.45 42.25, -0.95 23.41, 0 0" stroke="#000000" stroke-width="1" fill="none"></path></g><g transform="translate(623.3000030517578 208.5) rotate(0 76.69999694824219 11.5)"><text x="76.69999694824219" y="0" font-family="Helvetica, Segoe UI Emoji" font-size="20px" fill="#1e1e1e" text-anchor="middle" style="white-space: pre;" direction="ltr" dominant-baseline="text-before-edge">openapi-validator</text></g><g stroke-linecap="round"><g transform="translate(451.03572862947874 254) rotate(0 -0.5427763436458122 27.50000000000003)"><path d="M0 0 C-0.85 14.15, 0 22.89, -1.09 55 M0 0 C-0.12 16.35, -0.46 32.77, -1.09 55" stroke="#000000" stroke-width="1" fill="none"></path></g><g transform="translate(451.03572862947874 254) rotate(0 -0.5427763436458122 27.50000000000003)"><path d="M-9.02 31.29 C-7.91 38.34, -5.02 40.01, -1.09 55 M-9.02 31.29 C-6.34 38.57, -4.05 45.86, -1.09 55" stroke="#000000" stroke-width="1" fill="none"></path></g><g transform="translate(451.03572862947874 254) rotate(0 -0.5427763436458122 27.50000000000003)"><path d="M8.08 31.74 C5.33 38.77, 4.36 40.35, -1.09 55 M8.08 31.74 C5.77 38.78, 3.07 45.94, -1.09 55" stroke="#000000" stroke-width="1" fill="none"></path></g></g><mask></mask><g stroke-linecap="round"><g transform="translate(680.7841985194816 251) rotate(0 -88.19351285134798 29)"><path d="M0 0 C-64.98 20.19, -131.15 42.38, -176.39 58 M0 0 C-46.28 17.06, -91.94 31.66, -176.39 58" stroke="#000000" stroke-width="1" fill="none"></path></g><g transform="translate(680.7841985194816 251) rotate(0 -88.19351285134798 29)"><path d="M-156.54 42.8 C-164.05 47.31, -172.49 53.72, -176.39 58 M-156.54 42.8 C-162.27 47.42, -167.07 50.84, -176.39 58" stroke="#000000" stroke-width="1" fill="none"></path></g><g transform="translate(680.7841985194816 251) rotate(0 -88.19351285134798 29)"><path d="M-151.41 59.12 C-160.92 57.6, -171.25 58, -176.39 58 M-151.41 59.12 C-158.6 59.52, -164.74 58.69, -176.39 58" stroke="#000000" stroke-width="1" fill="none"></path></g></g><mask></mask><g stroke-linecap="round" transform="translate(90 310) rotate(0 90 30)"><path d="M0 0 C51.85 0.71, 102.41 -2.74, 180 0 M0 0 C42.08 -1.54, 82.96 -1.2, 180 0 M180 0 C178.49 14.71, 180.65 28.29, 180 60 M180 0 C179.51 17.89, 180.38 34.45, 180 60 M180 60 C118.55 56.72, 61.51 57.93, 0 60 M180 60 C140.26 61.45, 99.52 60.74, 0 60 M0 60 C0.13 43.2, -0.34 29.77, 0 0 M0 60 C-0.92 37.96, -0.9 15.82, 0 0" stroke="#000000" stroke-width="1" fill="none"></path></g><g transform="translate(117.20000076293944 328.5) rotate(0 62.799999237060554 11.5)"><text x="62.79999923706055" y="0" font-family="Helvetica, Segoe UI Emoji" font-size="20px" fill="#1e1e1e" text-anchor="middle" style="white-space: pre;" direction="ltr" dominant-baseline="text-before-edge">openapi-types</text></g><g stroke-linecap="round"><g transform="translate(271 348.62302483136693) rotate(0 46.60688307898042 -1.0520741102968145)"><path d="M0 0 C31.72 1.37, 64.24 1.07, 93.21 -2.1 M0 0 C32.45 -0.46, 63.61 -1.57, 93.21 -2.1" stroke="#000000" stroke-width="1" fill="none"></path></g><g transform="translate(271 348.62302483136693) rotate(0 46.60688307898042 -1.0520741102968145)"><path d="M69.92 6.97 C78.05 5.37, 87.04 2.73, 93.21 -2.1 M69.92 6.97 C78.5 3.93, 85.73 0.43, 93.21 -2.1" stroke="#000000" stroke-width="1" fill="none"></path></g><g transform="translate(271 348.62302483136693) rotate(0 46.60688307898042 -1.0520741102968145)"><path d="M69.54 -10.13 C77.93 -5.97, 87.05 -2.85, 93.21 -2.1 M69.54 -10.13 C78.14 -7.32, 85.51 -4.97, 93.21 -2.1" stroke="#000000" stroke-width="1" fill="none"></path></g></g><mask></mask><g stroke-linecap="round" transform="translate(370 430) rotate(0 80 30)"><path d="M0 0 C37.51 1.43, 77.13 1.36, 160 0 M0 0 C55.74 -0.58, 112.64 0.49, 160 0 M160 0 C161.62 22.09, 160.06 42.74, 160 60 M160 0 C160.8 12.64, 160.05 24.8, 160 60 M160 60 C117.78 60.95, 77.7 61.28, 0 60 M160 60 C106.33 60.26, 51.65 61.21, 0 60 M0 60 C-0.05 37.16, 0.76 16.62, 0 0 M0 60 C-0.06 42.35, -0.42 25.06, 0 0" stroke="#000000" stroke-width="1" fill="none"></path></g><g transform="translate(428.32500076293945 448.5) rotate(0 21.674999237060547 11.5)"><text x="21.674999237060547" y="0" font-family="Helvetica, Segoe UI Emoji" font-size="20px" fill="#1e1e1e" text-anchor="middle" style="white-space: pre;" direction="ltr" dominant-baseline="text-before-edge">input</text></g><g stroke-linecap="round" transform="translate(30 410) rotate(0 130 40)"><path d="M0 0 C66.42 1.96, 132.87 1.94, 260 0 M0 0 C65.94 1.19, 133.15 0.27, 260 0 M260 0 C260.28 30.64, 261.68 60.62, 260 80 M260 0 C260.49 21.24, 259.88 43.5, 260 80 M260 80 C196.65 79.3, 134.62 77.82, 0 80 M260 80 C169.62 81.53, 79.65 81.56, 0 80 M0 80 C0.81 50.69, 1.64 17.38, 0 0 M0 80 C0.43 52.79, 0.83 27.43, 0 0" stroke="#000000" stroke-width="1" fill="none"></path></g><g transform="translate(44.958335876464844 438.5) rotate(0 115.04166412353516 11.5)"><text x="115.04166412353516" y="0" font-family="Helvetica, Segoe UI Emoji" font-size="20px" fill="#1e1e1e" text-anchor="middle" style="white-space: pre;" direction="ltr" dominant-baseline="text-before-edge">openapi-types-normalized</text></g><g stroke-linecap="round"><g transform="translate(295.7093759698405 458.571140089658) rotate(0 34.563150025944765 0.12497011914206269)"><path d="M0 0 C16.53 1.7, 32.42 -0.06, 69.13 0.25 M0 0 C22.96 1.53, 43.43 1.18, 69.13 0.25" stroke="#000000" stroke-width="1" fill="none"></path></g><g transform="translate(295.7093759698405 458.571140089658) rotate(0 34.563150025944765 0.12497011914206269)"><path d="M45.9 9.49 C51.29 8.89, 56.11 4.84, 69.13 0.25 M45.9 9.49 C54.19 7.64, 60 4.26, 69.13 0.25" stroke="#000000" stroke-width="1" fill="none"></path></g><g transform="translate(295.7093759698405 458.571140089658) rotate(0 34.563150025944765 0.12497011914206269)"><path d="M45.39 -7.61 C51.03 -4.08, 55.97 -4.01, 69.13 0.25 M45.39 -7.61 C53.83 -3.99, 59.8 -1.9, 69.13 0.25" stroke="#000000" stroke-width="1" fill="none"></path></g></g><mask></mask><g stroke-linecap="round"><g transform="translate(450 370) rotate(0 0.2817880161726407 30)"><path d="M0 0 C0.91 13.83, 2.11 25.52, 0.56 60 M0 0 C0.2 13.65, -1.01 27.81, 0.56 60" stroke="#000000" stroke-width="1" fill="none"></path></g><g transform="translate(450 370) rotate(0 0.2817880161726407 30)"><path d="M-8.73 36.79 C-6.03 42.76, -2.96 46.57, 0.56 60 M-8.73 36.79 C-6.16 41.71, -5.3 47.13, 0.56 60" stroke="#000000" stroke-width="1" fill="none"></path></g><g transform="translate(450 370) rotate(0 0.2817880161726407 30)"><path d="M8.37 36.25 C7.41 42.29, 6.81 46.22, 0.56 60 M8.37 36.25 C6.87 41.27, 3.66 46.81, 0.56 60" stroke="#000000" stroke-width="1" fill="none"></path></g></g><mask></mask><g stroke-linecap="round"><g transform="translate(451.55044242425737 530) rotate(0 -0.5737770866574294 28.999999999999943)"><path d="M0 0 C-0.15 21.57, -2.46 42.75, -1.15 58 M0 0 C0.21 20.49, -1 40.53, -1.15 58" stroke="#000000" stroke-width="1" fill="none"></path></g><g transform="translate(451.55044242425737 530) rotate(0 -0.5737770866574294 28.999999999999943)"><path d="M-9.19 34.33 C-5.96 43.3, -4.92 51.95, -1.15 58 M-9.19 34.33 C-5.78 43.01, -3.84 51.3, -1.15 58" stroke="#000000" stroke-width="1" fill="none"></path></g><g transform="translate(451.55044242425737 530) rotate(0 -0.5737770866574294 28.999999999999943)"><path d="M7.91 34.7 C4.89 43.66, -0.31 52.18, -1.15 58 M7.91 34.7 C5.47 43.37, 1.55 51.53, -1.15 58" stroke="#000000" stroke-width="1" fill="none"></path></g></g><mask></mask><g stroke-linecap="round" transform="translate(10 590) rotate(0 420 179.5)"><path d="M0 0 C239.75 -1.07, 480.01 -1.02, 840 0 M0 0 C198.64 0.84, 397.52 1.09, 840 0 M840 0 C837.95 118.35, 838.38 237.2, 840 359 M840 0 C841.03 105.46, 841.94 212.22, 840 359 M840 359 C612.24 356.98, 384.38 356.51, 0 359 M840 359 C632.06 360.8, 423.46 361.16, 0 359 M0 359 C1.79 222.99, 1.51 88.87, 0 0 M0 359 C1.01 286.06, 0.45 212.59, 0 0" stroke="#000000" stroke-width="1" fill="none"></path></g><g transform="translate(30 610) rotate(0 133.35000610351562 11.5)"><text x="0" y="0" font-family="Helvetica, Segoe UI Emoji" font-size="20px" fill="#000000" text-anchor="start" style="white-space: pre;" direction="ltr" dominant-baseline="text-before-edge">(typescript) template functions</text></g><g stroke-linecap="round" transform="translate(10 10) rotate(0 420 260)"><path d="M0 0 C290.77 0.63, 583.25 1.22, 840 0 M0 0 C185.77 0.91, 372 0.5, 840 0 M840 0 C841.4 148.87, 841.44 297.33, 840 520 M840 0 C838.22 183.5, 837.84 366.84, 840 520 M840 520 C595.04 521.19, 349.61 522.32, 0 520 M840 520 C669.29 520.97, 497.9 520.44, 0 520 M0 520 C-1.2 396.72, -1.54 275.75, 0 0 M0 520 C0.49 388.48, -0.19 256.85, 0 0" stroke="#000000" stroke-width="1" fill="none"></path></g><g transform="translate(30 30) rotate(0 49.45833206176758 11.5)"><text x="0" y="0" font-family="Helvetica, Segoe UI Emoji" font-size="20px" fill="#000000" text-anchor="start" style="white-space: pre;" direction="ltr" dominant-baseline="text-before-edge">core library</text></g><g stroke-linecap="round" transform="translate(50 670) rotate(0 108.5 30)"><path d="M0 0 C46.78 0.66, 92.7 3.2, 217 0 M0 0 C81.22 1.72, 163.11 1.48, 217 0 M217 0 C218.43 20.46, 215.38 39.11, 217 60 M217 0 C215.92 16.13, 215.77 31.14, 217 60 M217 60 C157.23 60.17, 96.89 60.46, 0 60 M217 60 C134.12 60.25, 50.99 59.69, 0 60 M0 60 C-2.45 39.2, 0.5 20.12, 0 0 M0 60 C0.15 38.74, -1.22 17.28, 0 0" stroke="#000000" stroke-width="1" fill="none"></path></g><g transform="translate(90.71666717529298 688.5) rotate(0 67.78333282470703 11.5)"><text x="67.78333282470703" y="0" font-family="Helvetica, Segoe UI Emoji" font-size="20px" fill="#1e1e1e" text-anchor="middle" style="white-space: pre;" direction="ltr" dominant-baseline="text-before-edge">typescript-fetch</text></g><g stroke-linecap="round" transform="translate(310 670) rotate(0 122 30)"><path d="M0 0 C55.59 0.63, 112.81 2.37, 244 0 M0 0 C77.37 -0.71, 155.79 -1.92, 244 0 M244 0 C242.7 20.45, 243.35 38.27, 244 60 M244 0 C243.99 21.83, 243.04 44.79, 244 60 M244 60 C170.33 59.14, 95.71 60.26, 0 60 M244 60 C180.59 58.01, 115.68 58.23, 0 60 M0 60 C-0.62 45.34, 1.39 27.05, 0 0 M0 60 C-0.87 45.95, 0.24 32.78, 0 0" stroke="#000000" stroke-width="1" fill="none"></path></g><g transform="translate(352.53333282470703 688.5) rotate(0 79.46666717529297 11.5)"><text x="79.46666717529297" y="0" font-family="Helvetica, Segoe UI Emoji" font-size="20px" fill="#1e1e1e" text-anchor="middle" style="white-space: pre;" direction="ltr" dominant-baseline="text-before-edge">typescript-angular</text></g><g stroke-linecap="round" transform="translate(590 310) rotate(0 110 30)"><path d="M0 0 C73.28 1.18, 144.23 0.23, 220 0 M0 0 C85.23 1.47, 170.96 0.8, 220 0 M220 0 C220.05 10.61, 219.35 25.13, 220 60 M220 0 C220.71 16.15, 220.78 31.22, 220 60 M220 60 C167.78 61.99, 117.18 60.35, 0 60 M220 60 C154.36 61.78, 87.72 61.91, 0 60 M0 60 C0.74 41.14, 1.28 25.21, 0 0 M0 60 C1.14 36.06, -0.2 13.87, 0 0" stroke="#000000" stroke-width="1" fill="none"></path></g><g transform="translate(639.4166679382324 328.5) rotate(0 60.58333206176758 11.5)"><text x="60.58333206176758" y="0" font-family="Helvetica, Segoe UI Emoji" font-size="20px" fill="#1e1e1e" text-anchor="middle" style="white-space: pre;" direction="ltr" dominant-baseline="text-before-edge">generation-lib</text></g><g stroke-linecap="round"><g transform="translate(590 350) rotate(0 -30 0)"><path d="M0 0 C-16.78 -1.4, -36.18 -0.6, -60 0 M0 0 C-19.05 -0.1, -38.34 0.91, -60 0" stroke="#000000" stroke-width="1" fill="none"></path></g><g transform="translate(590 350) rotate(0 -30 0)"><path d="M-36.34 -8.07 C-42.5 -7.09, -51.21 -3.91, -60 0 M-36.34 -8.07 C-43.52 -5.78, -51 -2.15, -60 0" stroke="#000000" stroke-width="1" fill="none"></path></g><g transform="translate(590 350) rotate(0 -30 0)"><path d="M-36.69 9.03 C-42.62 4.99, -51.23 3.14, -60 0 M-36.69 9.03 C-43.87 5.76, -51.24 3.83, -60 0" stroke="#000000" stroke-width="1" fill="none"></path></g></g><mask></mask><g stroke-linecap="round" transform="translate(350 50) rotate(0 100 30)"><path d="M15 0 C68.77 -1.91, 127.86 -1.23, 185 0 M15 0 C69.48 0.52, 121.84 0.94, 185 0 M185 0 C194.24 1.68, 201 4.56, 200 15 M185 0 C196.7 0.97, 200.73 5.44, 200 15 M200 15 C202.05 25.67, 198.6 32.39, 200 45 M200 15 C199.97 23.34, 198.83 33.15, 200 45 M200 45 C200.3 55.99, 193.26 60.46, 185 60 M200 45 C201.3 55.77, 193.77 61.97, 185 60 M185 60 C120.55 60.19, 52.62 57.37, 15 60 M185 60 C121.65 60.7, 56.92 60.96, 15 60 M15 60 C3.35 59.27, 1.32 53.46, 0 45 M15 60 C5.65 61.11, -1.96 55.02, 0 45 M0 45 C1.25 36.5, -0.85 29.41, 0 15 M0 45 C0.16 37.51, 0.27 30.87, 0 15 M0 15 C1.91 5.23, 5.56 0.18, 15 0 M0 15 C-0.64 7.19, 3.89 -0.4, 15 0" stroke="#1e1e1e" stroke-width="1" fill="none"></path></g><g transform="translate(402.21666717529297 68.5) rotate(0 47.78333282470703 11.5)"><text x="47.78333282470703" y="0" font-family="Helvetica, Segoe UI Emoji" font-size="20px" fill="#1e1e1e" text-anchor="middle" style="white-space: pre;" direction="ltr" dominant-baseline="text-before-edge">Entry point</text></g><g stroke-linecap="round" transform="translate(630 50) rotate(0 90 30)"><path d="M15 0 C59.57 2.6, 106.17 1.23, 165 0 M15 0 C54.9 -1.24, 93.58 -1.56, 165 0 M165 0 C175.67 1.35, 180.01 4.22, 180 15 M165 0 C173.27 1.89, 180.91 5.64, 180 15 M180 15 C179.23 23.46, 178.81 30.15, 180 45 M180 15 C180.01 23.87, 180.04 33.29, 180 45 M180 45 C180.82 55.19, 173.78 60.17, 165 60 M180 45 C181.7 55.65, 173.58 61.68, 165 60 M165 60 C104.45 59.47, 47.88 60.57, 15 60 M165 60 C128.47 58.96, 91.82 59.94, 15 60 M15 60 C4.31 61.54, 1.99 54.78, 0 45 M15 60 C3.34 59.04, -2.11 54.78, 0 45 M0 45 C0.61 31.6, 1.56 21.73, 0 15 M0 45 C-1.18 38.69, -1.02 31.41, 0 15 M0 15 C1.57 3.64, 4.09 -1.95, 15 0 M0 15 C-1.63 3.7, 3.43 1.23, 15 0" stroke="#1e1e1e" stroke-width="1" fill="none"></path></g><g transform="translate(693.3250007629395 68.5) rotate(0 26.674999237060547 11.5)"><text x="26.674999237060547" y="0" font-family="Helvetica, Segoe UI Emoji" font-size="20px" fill="#1e1e1e" text-anchor="middle" style="white-space: pre;" direction="ltr" dominant-baseline="text-before-edge">config</text></g><g stroke-linecap="round"><g transform="translate(625.5 80.6817249977949) rotate(0 -36.24999999999994 0.6537133448964312)"><path d="M-0.1 -0.92 C-11.97 -0.91, -60.16 -0.27, -72.22 0.26 M-1.61 1.2 C-13.53 1.31, -61.08 1.37, -73.02 1.25" stroke="#1e1e1e" stroke-width="1" fill="none"></path></g><g transform="translate(625.5 80.6817249977949) rotate(0 -36.24999999999994 0.6537133448964312)"><path d="M-49.49 -7.22 C-56.14 -4.92, -61.46 -3.49, -73.02 1.25 M-49.49 -7.22 C-58.91 -4.67, -68.15 -0.45, -73.02 1.25" stroke="#1e1e1e" stroke-width="1" fill="none"></path></g><g transform="translate(625.5 80.6817249977949) rotate(0 -36.24999999999994 0.6537133448964312)"><path d="M-49.56 9.88 C-56.21 8.46, -61.52 6.17, -73.02 1.25 M-49.56 9.88 C-58.96 5.92, -68.18 3.63, -73.02 1.25" stroke="#1e1e1e" stroke-width="1" fill="none"></path></g></g><mask></mask><g stroke-linecap="round"><g transform="translate(450.97268677577375 109.46471784274092) rotate(0 -0.48634338788687614 40.26764107862954)"><path d="M-0.97 1.04 C-1.13 14.56, -0.89 66.95, -1 80.29 M0.72 0.54 C0.4 14.31, -1.99 68.62, -1.97 81.7" stroke="#1e1e1e" stroke-width="1" fill="none"></path></g><g transform="translate(450.97268677577375 109.46471784274092) rotate(0 -0.48634338788687614 40.26764107862954)"><path d="M-9.94 58 C-6.01 65.04, -5.78 70.96, -1.97 81.7 M-9.94 58 C-6.67 65.38, -3.48 73.61, -1.97 81.7" stroke="#1e1e1e" stroke-width="1" fill="none"></path></g><g transform="translate(450.97268677577375 109.46471784274092) rotate(0 -0.48634338788687614 40.26764107862954)"><path d="M7.16 58.43 C6.02 65.2, 1.18 70.99, -1.97 81.7 M7.16 58.43 C4.54 65.63, 1.85 73.72, -1.97 81.7" stroke="#1e1e1e" stroke-width="1" fill="none"></path></g></g><mask></mask><g stroke-linecap="round" transform="translate(590 670) rotate(0 110 30)"><path d="M0 0 C60.26 0.55, 117.78 -0.25, 220 0 M0 0 C63.55 1.23, 128.51 2.38, 220 0 M220 0 C222.04 21.85, 218.93 40.43, 220 60 M220 0 C218.91 15.6, 220.19 30.5, 220 60 M220 60 C160.09 60.64, 101.21 58.7, 0 60 M220 60 C161.74 59.46, 104.06 58.36, 0 60 M0 60 C1.15 43.18, 1.56 22.14, 0 0 M0 60 C-1.13 36.84, -0.62 12.17, 0 0" stroke="#000000" stroke-width="1" fill="none"></path></g><g transform="translate(637.7666664123535 688.5) rotate(0 62.233333587646484 11.5)"><text x="62.233333587646484" y="0" font-family="Helvetica, Segoe UI Emoji" font-size="20px" fill="#1e1e1e" text-anchor="middle" style="white-space: pre;" direction="ltr" dominant-baseline="text-before-edge">typescript-koa</text></g><g stroke-linecap="round" transform="translate(310 830) rotate(0 120 30)"><path d="M0 0 C72.42 -0.45, 146.05 -2.11, 240 0 M0 0 C52.4 -0.05, 105.11 0.67, 240 0 M240 0 C241.68 10.68, 240.92 25.35, 240 60 M240 0 C239.99 20.28, 240.06 41.33, 240 60 M240 60 C190.74 59.51, 142.04 61.54, 0 60 M240 60 C163.93 59.5, 88.07 59.38, 0 60 M0 60 C1.47 40.21, -0.02 18.87, 0 0 M0 60 C-0.25 41.55, -1.03 23.01, 0 0" stroke="#000000" stroke-width="1" fill="none"></path></g><g transform="translate(391.65833282470703 848.5) rotate(0 38.34166717529297 11.5)"><text x="38.34166717529297" y="0" font-family="Helvetica, Segoe UI Emoji" font-size="20px" fill="#1e1e1e" text-anchor="middle" style="white-space: pre;" direction="ltr" dominant-baseline="text-before-edge">common</text></g><g stroke-linecap="round"><g transform="translate(330 830) rotate(0 -59.24982923237141 -49.85453322939577)"><path d="M-0.09 1.04 C-19.83 -15.79, -99.32 -83.27, -118.86 -100 M-1.59 0.54 C-21.49 -16.19, -100.68 -81.62, -120 -98.62" stroke="#1e1e1e" stroke-width="1" fill="none"></path></g><g transform="translate(330 830) rotate(0 -59.24982923237141 -49.85453322939577)"><path d="M-96.56 -89.93 C-101.14 -92.87, -109.61 -92.66, -120 -98.62 M-96.56 -89.93 C-104.24 -93.44, -113.11 -96.17, -120 -98.62" stroke="#1e1e1e" stroke-width="1" fill="none"></path></g><g transform="translate(330 830) rotate(0 -59.24982923237141 -49.85453322939577)"><path d="M-107.62 -76.89 C-109.36 -83.29, -114.88 -86.57, -120 -98.62 M-107.62 -76.89 C-111.7 -84.69, -116.89 -91.76, -120 -98.62" stroke="#1e1e1e" stroke-width="1" fill="none"></path></g></g><mask></mask><g stroke-linecap="round"><g transform="translate(430 830) rotate(0 0 -50)"><path d="M-0.27 0.64 C-0.18 -15.94, 0.89 -82.87, 1.08 -99.84 M1.79 -0.08 C1.76 -16.4, 0.9 -81.49, 0.7 -98.21" stroke="#1e1e1e" stroke-width="1" fill="none"></path></g><g transform="translate(430 830) rotate(0 0 -50)"><path d="M9.54 -74.83 C7.6 -81.19, 3.73 -89.66, 0.7 -98.21 M9.54 -74.83 C7.43 -79.35, 6.15 -84.84, 0.7 -98.21" stroke="#1e1e1e" stroke-width="1" fill="none"></path></g><g transform="translate(430 830) rotate(0 0 -50)"><path d="M-7.56 -74.62 C-3.55 -81.01, -1.47 -89.56, 0.7 -98.21 M-7.56 -74.62 C-6.17 -79.21, -3.94 -84.75, 0.7 -98.21" stroke="#1e1e1e" stroke-width="1" fill="none"></path></g></g><mask></mask><g stroke-linecap="round"><g transform="translate(530 830) rotate(0 68.36416443781138 -49.987186308577634)"><path d="M0.9 0.81 C23.77 -15.97, 115.3 -83.37, 137.76 -100 M-0.08 0.2 C22.67 -16.45, 114.34 -81.65, 137.35 -98.48" stroke="#1e1e1e" stroke-width="1" fill="none"></path></g><g transform="translate(530 830) rotate(0 68.36416443781138 -49.987186308577634)"><path d="M123.28 -77.81 C129.38 -83.34, 132.84 -93.97, 137.35 -98.48 M123.28 -77.81 C129.01 -85.35, 133.44 -93.47, 137.35 -98.48" stroke="#1e1e1e" stroke-width="1" fill="none"></path></g><g transform="translate(530 830) rotate(0 68.36416443781138 -49.987186308577634)"><path d="M113.29 -91.69 C122.92 -92.5, 129.84 -98.33, 137.35 -98.48 M113.29 -91.69 C122.96 -93.92, 131.24 -96.68, 137.35 -98.48" stroke="#1e1e1e" stroke-width="1" fill="none"></path></g></g><mask></mask><g stroke-linecap="round" transform="translate(10 1010) rotate(0 420 100)"><path d="M0 0 C322.64 0.58, 645.43 0.3, 840 0 M0 0 C294.68 0.93, 589.77 0.97, 840 0 M840 0 C840.26 69.71, 839.76 143.68, 840 200 M840 0 C840.08 41.33, 839.98 81.71, 840 200 M840 200 C658.43 202.45, 477.76 202.68, 0 200 M840 200 C548.03 200.81, 256.79 200.59, 0 200 M0 200 C0.05 123.8, -3.14 48.65, 0 0 M0 200 C0.52 123.78, -0.27 46.28, 0 0" stroke="#1e1e1e" stroke-width="1" fill="none"></path></g><g stroke-linecap="round" transform="translate(250 1070) rotate(0 101.5 36)"><path d="M0 0 C79.84 -1.14, 161.8 -0.36, 203 0 M0 0 C78.67 2.49, 155.59 1.93, 203 0 M203 0 C204.24 22.73, 201.29 44.63, 203 72 M203 0 C203.71 18.41, 202.77 35.16, 203 72 M203 72 C153.9 72.62, 105.22 72.53, 0 72 M203 72 C140.14 73.24, 77.9 72.76, 0 72 M0 72 C-0.95 49.35, -1.4 27.25, 0 0 M0 72 C-0.33 45.29, -0.22 19.94, 0 0" stroke="#1e1e1e" stroke-width="1" fill="none"></path></g><g transform="translate(280.3833312988281 1083) rotate(0 71.11666870117188 23)"><text x="71.11666870117188" y="0" font-family="Helvetica, Segoe UI Emoji" font-size="20px" fill="#1e1e1e" text-anchor="middle" style="white-space: pre;" direction="ltr" dominant-baseline="text-before-edge">typescript-fetch-</text><text x="71.11666870117188" y="23" font-family="Helvetica, Segoe UI Emoji" font-size="20px" fill="#1e1e1e" text-anchor="middle" style="white-space: pre;" direction="ltr" dominant-baseline="text-before-edge">runtime</text></g><g stroke-linecap="round" transform="translate(510 1070) rotate(0 101.5 36)"><path d="M0 0 C55.86 -2.16, 113.39 -2.69, 203 0 M0 0 C62.93 -1.54, 126.02 -0.32, 203 0 M203 0 C202.42 17.91, 204 38, 203 72 M203 0 C202.62 17.39, 203.13 35.35, 203 72 M203 72 C151.29 71.9, 95.69 71.77, 0 72 M203 72 C127.74 72.6, 51.56 72.41, 0 72 M0 72 C-1.39 49.92, -1.58 23.53, 0 0 M0 72 C0.27 47.64, -1.26 24.09, 0 0" stroke="#1e1e1e" stroke-width="1" fill="none"></path></g><g transform="translate(545.9333343505859 1083) rotate(0 65.56666564941406 23)"><text x="65.56666564941406" y="0" font-family="Helvetica, Segoe UI Emoji" font-size="20px" fill="#1e1e1e" text-anchor="middle" style="white-space: pre;" direction="ltr" dominant-baseline="text-before-edge">typescript-koa-</text><text x="65.56666564941406" y="23" font-family="Helvetica, Segoe UI Emoji" font-size="20px" fill="#1e1e1e" text-anchor="middle" style="white-space: pre;" direction="ltr" dominant-baseline="text-before-edge">runtime</text></g><g transform="translate(30 1030) rotate(0 78.90833282470703 11.5)"><text x="0" y="0" font-family="Helvetica, Segoe UI Emoji" font-size="20px" fill="#1e1e1e" text-anchor="start" style="white-space: pre;" direction="ltr" dominant-baseline="text-before-edge">runtime packages</text></g><g stroke-linecap="round"><g transform="translate(450.24928632370325 950) rotate(0 -0.10183148008684384 29.5)"><path d="M0 0 C-0.86 23.43, 0.87 44.92, -0.2 59 M0 0 C0.81 14.2, 0.69 28.37, -0.2 59" stroke="#1e1e1e" stroke-width="1" fill="none"></path></g><g transform="translate(450.24928632370325 950) rotate(0 -0.10183148008684384 29.5)"><path d="M-8.16 35.3 C-5.62 45.04, -0.7 52.76, -0.2 59 M-8.16 35.3 C-5.63 40.82, -3.76 46.36, -0.2 59" stroke="#1e1e1e" stroke-width="1" fill="none"></path></g><g transform="translate(450.24928632370325 950) rotate(0 -0.10183148008684384 29.5)"><path d="M8.94 35.73 C4.82 45.15, 3.06 52.7, -0.2 59 M8.94 35.73 C7.29 41.29, 4.99 46.73, -0.2 59" stroke="#1e1e1e" stroke-width="1" fill="none"></path></g></g><mask></mask></svg>