<svg version="1.1" xmlns="http://www.w3.org/2000/svg" viewBox="0 0 879 1233.5999755859375" width="879" height="1233.5999755859375">
  <!-- svg-source:excalidraw -->
  
  <defs>
    <style class="style-fonts">
      @font-face {
        font-family: "Virgil";
        src: url("https://excalidraw.com/Virgil.woff2");
      }
      @font-face {
        font-family: "Cascadia";
        src: url("https://excalidraw.com/Cascadia.woff2");
      }
    </style>
    
  </defs>
  <rect x="0" y="0" width="879" height="1233.5999755859375" fill="#ffffff"></rect><g stroke-linecap="round" transform="translate(407 183) rotate(0 78.5 28)"><path d="M-0.26 -1.72 C50.22 0.62, 101.41 0.46, 155.02 -1.39 M-0.92 -0.33 C52.22 1.77, 104.65 1.07, 156.09 -0.69 M155.2 -1.22 C157.41 14.04, 157.46 25.12, 158.9 57.33 M156.81 0.54 C158.03 15.35, 157.06 32.22, 157.4 56.9 M157.2 55.17 C111.46 58.57, 63.48 55.3, -0.41 54.93 M156.23 56.63 C110.05 56.57, 64.27 58.11, 0.86 55.79 M-0.64 56.9 C-1.43 38.37, -0.17 19.18, 1.55 -0.16 M0.4 55.66 C0.62 35.33, 0.06 13.58, 0.6 0.2" stroke="#000000" stroke-width="1" fill="none"></path></g><g transform="translate(436.5 200) rotate(0 49.55208206176758 13)"><text x="0" y="0" font-family="Virgil, Segoe UI Emoji" font-size="20px" fill="#000000" text-anchor="start" style="white-space: pre;" direction="ltr" dominant-baseline="text-before-edge">file-loader</text></g><g stroke-linecap="round" transform="translate(396 319) rotate(0 81.5 35)"><path d="M0.2 -0.83 C50.29 0.77, 98.13 -2.5, 162.59 -1.07 M-0.77 0.63 C47.1 -2.26, 95.37 -0.72, 163.86 -0.21 M162.36 0.9 C160.92 25.59, 162.18 49.62, 164.55 69.84 M163.4 -0.34 C162.68 27.94, 162.12 54.8, 163.6 70.2 M164.85 70.18 C103.27 71.16, 44.82 70.2, 1.9 68.13 M163.81 70.72 C111.71 70.03, 58.83 70.21, -0.4 69.36 M0.5 69.86 C2.14 45.37, -1.43 22.15, 0.55 1.39 M0.37 69.37 C-0.98 52.07, -1.04 34.77, -0.3 0.48" stroke="#000000" stroke-width="1" fill="none"></path></g><g transform="translate(409 341) rotate(0 68.79166412353516 13)"><text x="0" y="0" font-family="Virgil, Segoe UI Emoji" font-size="20px" fill="#000000" text-anchor="start" style="white-space: pre;" direction="ltr" dominant-baseline="text-before-edge">openapi-loader</text></g><g stroke-linecap="round" transform="translate(619 181) rotate(0 101 26.5)"><path d="M0.14 -1.12 C65.07 0.37, 133.39 -1.85, 203.05 1.17 M-0.75 0.63 C67.61 1.75, 133.24 1.78, 202.64 0.78 M200.3 0.46 C203.39 17.87, 201.99 33.14, 202.6 51.27 M202.9 0.35 C201.44 19.55, 201.31 39.64, 202.56 53.94 M201.66 52.38 C126.87 52.09, 52.27 50.94, 0.28 51.83 M202.5 53.45 C156.48 51.48, 112.01 52.4, 0.1 53.21 M1.76 54.87 C0.26 30.5, 0.06 9.87, -1.99 0.85 M0.41 53.09 C0.65 37.83, -0.05 23.42, -0.98 -0.14" stroke="#000000" stroke-width="1" fill="none"></path></g><g transform="translate(638 194.5) rotate(0 83.05208587646484 13)"><text x="0" y="0" font-family="Virgil, Segoe UI Emoji" font-size="20px" fill="#000000" text-anchor="start" style="white-space: pre;" direction="ltr" dominant-baseline="text-before-edge">openapi-validator</text></g><g stroke-linecap="round"><g transform="translate(487 238) rotate(0 -1.6322608264163136 44.63764805812389)"><path d="M-0.73 1.74 C0.11 18.15, -0.86 39.1, -3.28 89.97 M0.01 -0.7 C-0.07 30.22, -0.27 58.99, -2.15 88.46" stroke="#000000" stroke-width="1" fill="none"></path></g><g transform="translate(487 238) rotate(0 -1.6322608264163136 44.63764805812389)"><path d="M-11.77 61.54 C-8.6 64.29, -7.12 71.62, -3.42 89.43 M-11.02 59.11 C-7.77 69.94, -4.36 78.68, -2.29 87.92" stroke="#000000" stroke-width="1" fill="none"></path></g><g transform="translate(487 238) rotate(0 -1.6322608264163136 44.63764805812389)"><path d="M8.73 62.53 C7.27 65.16, 4.12 72.27, -3.42 89.43 M9.48 60.1 C5.93 70.74, 2.53 79.16, -2.29 87.92" stroke="#000000" stroke-width="1" fill="none"></path></g></g><mask></mask><g stroke-linecap="round"><g transform="translate(722 232) rotate(0 -81.04159368854016 43.231060477904975)"><path d="M-0.29 -1.08 C-60.6 32.07, -119.72 66.21, -160.37 86.67 M-0.79 0.44 C-57.38 29.96, -112.4 61.64, -161.79 87.55" stroke="#000000" stroke-width="1" fill="none"></path></g><g transform="translate(722 232) rotate(0 -81.04159368854016 43.231060477904975)"><path d="M-142.11 64.07 C-150.45 73.12, -157.19 83.06, -160.16 86.22 M-142.62 65.6 C-149.46 72.3, -154.92 81.09, -161.59 87.09" stroke="#000000" stroke-width="1" fill="none"></path></g><g transform="translate(722 232) rotate(0 -81.04159368854016 43.231060477904975)"><path d="M-132.39 82.15 C-144.44 84.52, -154.76 87.8, -160.16 86.22 M-132.9 83.67 C-143.08 84.06, -151.94 86.54, -161.59 87.09" stroke="#000000" stroke-width="1" fill="none"></path></g></g><mask></mask><g stroke-linecap="round" transform="translate(138 326) rotate(0 87.5 28)"><path d="M-0.1 1.89 C49.02 -2.71, 99.62 -2.84, 176.76 0.95 M-0.8 -0.84 C52.83 -1.18, 107.34 -0.1, 175.96 -0.17 M176.82 1.78 C175.5 12.68, 174.83 22.31, 173.73 54.22 M174.12 0.46 C175.72 22.65, 175.61 43.97, 174.6 56.8 M175.14 57 C123.08 55.79, 67.8 53.62, -0.48 54.7 M174.52 56.55 C133.39 56.19, 91.14 57.66, -0.38 55.19 M0.61 54.89 C-1.3 39.47, -1.21 24.05, -1.32 0.69 M0.38 55.19 C0.5 38.49, -0.66 22.56, 0.08 -0.71" stroke="#000000" stroke-width="1" fill="none"></path></g><g transform="translate(160.5 341) rotate(0 64.65625 13)"><text x="0" y="0" font-family="Virgil, Segoe UI Emoji" font-size="20px" fill="#000000" text-anchor="start" style="white-space: pre;" direction="ltr" dominant-baseline="text-before-edge">openapi-types</text></g><g stroke-linecap="round"><g transform="translate(303 354) rotate(0 50.657451135106385 3.085492136888206)"><path d="M0.36 1.25 C35.54 4.24, 68.88 3.08, 100.44 6.11 M0.94 0.06 C30.9 2.15, 59.87 4.03, 100.96 4.4" stroke="#000000" stroke-width="1" fill="none"></path></g><g transform="translate(303 354) rotate(0 50.657451135106385 3.085492136888206)"><path d="M72.92 15.32 C83.55 12.73, 92.44 6.63, 100.4 5.51 M73.5 14.13 C81.68 11.53, 88.85 9.01, 100.91 3.79" stroke="#000000" stroke-width="1" fill="none"></path></g><g transform="translate(303 354) rotate(0 50.657451135106385 3.085492136888206)"><path d="M73.34 -5.19 C83.99 -0.88, 92.74 -0.08, 100.4 5.51 M73.92 -6.38 C81.94 -2.83, 88.99 0.81, 100.91 3.79" stroke="#000000" stroke-width="1" fill="none"></path></g></g><mask></mask><g stroke-linecap="round" transform="translate(390 440) rotate(0 84 31.5)"><path d="M-1.59 1.22 C39.98 1.37, 83.2 0.4, 168.4 -1.81 M0.61 0.22 C46.88 -0.62, 92.38 -1.4, 167.7 -0.95 M168.71 -0.95 C168.2 23.65, 169.54 50.8, 167.44 62.42 M167.51 0.62 C168.83 21.43, 168.74 44.55, 168.58 62.86 M168.68 62.56 C111.45 60.77, 53.97 61.08, 0.17 61.51 M168.84 62.54 C107.8 62.32, 49.45 63.49, 0.6 63.97 M-1.3 64.01 C0.56 45.6, 1.45 32.63, 0.33 -0.46 M-0.24 62.46 C0.46 42.26, -1.18 19.99, -0.74 -0.6" stroke="#000000" stroke-width="1" fill="none"></path></g><g transform="translate(452 458.5) rotate(0 23.10416603088379 13)"><text x="0" y="0" font-family="Virgil, Segoe UI Emoji" font-size="20px" fill="#000000" text-anchor="start" style="white-space: pre;" direction="ltr" dominant-baseline="text-before-edge">input</text></g><g stroke-linecap="round" transform="translate(41 434) rotate(0 138 32.5)"><path d="M0.45 1.51 C70.94 1.9, 139.34 0.38, 275.42 -1.01 M0.56 0.71 C96.92 1.21, 193.93 1.75, 276.42 -0.18 M274.24 0.64 C275.02 14.77, 277.56 30.27, 274.79 66.29 M275.95 0.87 C275.15 16.65, 275 33.69, 276.9 65.12 M277.34 64.84 C171.41 66.37, 67.06 67.16, -0.78 65.77 M276.77 64.74 C169.28 67.6, 63.45 67.01, 0.63 64.64 M-1.49 66.72 C1.73 44.62, 0.88 28.32, 0.99 0.23 M0.31 65.81 C0.5 39.03, 0.13 14.51, 0.33 0.49" stroke="#000000" stroke-width="1" fill="none"></path></g><g transform="translate(60 453.5) rotate(0 117.96875 13)"><text x="0" y="0" font-family="Virgil, Segoe UI Emoji" font-size="20px" fill="#000000" text-anchor="start" style="white-space: pre;" direction="ltr" dominant-baseline="text-before-edge">openapi-types-normalized</text></g><g stroke-linecap="round"><g transform="translate(307 465) rotate(0 45.082455647177994 5.110169383697212)"><path d="M-0.14 1.62 C20.84 1.76, 43.85 3.64, 88.51 9.72 M0.52 0.5 C35.42 3.55, 70.82 5.01, 90.31 8.81" stroke="#000000" stroke-width="1" fill="none"></path></g><g transform="translate(307 465) rotate(0 45.082455647177994 5.110169383697212)"><path d="M60.85 16.82 C67.1 13.47, 75.48 11.89, 88.81 10.53 M61.52 15.69 C72.67 13.4, 84.23 9.2, 90.61 9.62" stroke="#000000" stroke-width="1" fill="none"></path></g><g transform="translate(307 465) rotate(0 45.082455647177994 5.110169383697212)"><path d="M63.6 -3.51 C69.33 -1.96, 77.04 1.36, 88.81 10.53 M64.27 -4.64 C74.19 1.07, 84.66 4.86, 90.61 9.62" stroke="#000000" stroke-width="1" fill="none"></path></g></g><mask></mask><g stroke-linecap="round"><g transform="translate(478 382) rotate(0 1.9324129465967417 33.83758400101215)"><path d="M0.66 0.98 C2.74 14.18, 0.62 27.13, 3.65 68.09 M-0.26 -0.41 C0.68 16.04, 1.88 32.8, 4.12 66.42" stroke="#000000" stroke-width="1" fill="none"></path></g><g transform="translate(478 382) rotate(0 1.9324129465967417 33.83758400101215)"><path d="M-7.35 39.96 C-3.61 44.71, -3.99 49.19, 3.77 67.51 M-8.26 38.57 C-5.07 45.64, -1.93 52.97, 4.24 65.85" stroke="#000000" stroke-width="1" fill="none"></path></g><g transform="translate(478 382) rotate(0 1.9324129465967417 33.83758400101215)"><path d="M13.13 38.59 C12.48 43.57, 7.71 48.34, 3.77 67.51 M12.21 37.2 C10.51 44.45, 8.77 52.1, 4.24 65.85" stroke="#000000" stroke-width="1" fill="none"></path></g></g><mask></mask><g stroke-linecap="round"><g transform="translate(478 493) rotate(0 3.4578620894123446 58.71710495399776)"><path d="M0.31 0.39 C0.25 42.73, 4.59 84.35, 6.61 117.49 M0.65 -0.05 C1.08 43.14, 3.7 83.77, 4.87 115.48" stroke="#000000" stroke-width="1" fill="none"></path></g><g transform="translate(478 493) rotate(0 3.4578620894123446 58.71710495399776)"><path d="M-6.31 88.15 C-4.03 98.2, 2.59 107.56, 6.24 116.89 M-5.96 87.71 C-3.16 98.73, 1.73 107.23, 4.5 114.88" stroke="#000000" stroke-width="1" fill="none"></path></g><g transform="translate(478 493) rotate(0 3.4578620894123446 58.71710495399776)"><path d="M14.2 87.26 C8.99 97.79, 8.13 107.48, 6.24 116.89 M14.54 86.82 C9.89 98.33, 7.33 107.16, 4.5 114.88" stroke="#000000" stroke-width="1" fill="none"></path></g></g><mask></mask><g stroke-linecap="round" transform="translate(14 605) rotate(0 427.5 182)"><path d="M-0.56 0.49 C243.99 -1.05, 488.68 -2.07, 854.82 0.05 M0.12 -0.39 C275.97 -2.84, 551.19 -2.7, 855.15 -0.02 M853.93 0.88 C857.56 132.73, 856.13 265.5, 855.17 363.68 M854.55 0.4 C853.63 113.37, 853.17 227.9, 855.49 363.49 M854.79 364.71 C583.87 362.61, 314.45 362.92, 0.19 363.23 M854.95 364.29 C629.73 361.23, 404.19 361.09, 0.39 363.91 M-0.47 364.8 C-0.53 227.2, -1.65 91.14, 1.07 -0.3 M0.37 363.52 C0.7 237.93, 0.97 111.17, -0.44 -0.16" stroke="#000000" stroke-width="1" fill="none"></path></g><g transform="translate(52 631) rotate(0 152.2395782470703 13)"><text x="0" y="0" font-family="Virgil, Segoe UI Emoji" font-size="20px" fill="#000000" text-anchor="start" style="white-space: pre;" direction="ltr" dominant-baseline="text-before-edge">(typescript) template functions</text></g><g stroke-linecap="round" transform="translate(10 10) rotate(0 428.5 279)"><path d="M-0.54 -0.61 C297.83 1.25, 593.79 1.58, 856.8 -0.25 M-0.06 0.15 C271.72 3.28, 543.72 3.3, 856.97 0.21 M856.99 -0.52 C855.85 116.3, 856.8 233.15, 857.38 557.42 M857.21 0.07 C858.77 188.4, 858.3 375.93, 856.74 558.17 M856.35 558.72 C667.42 554.54, 478.15 555.35, 0.27 557.41 M857.24 558.12 C562.33 561.38, 267.5 561.32, 0.21 558.35 M-0.33 558.13 C0.71 340.61, 1.41 122.2, 0.64 -0.75 M0.04 557.61 C2.38 432.9, 2.6 308.53, 0.05 -0.34" stroke="#000000" stroke-width="1" fill="none"></path></g><g transform="translate(32.5 28) rotate(0 55.1875 13)"><text x="0" y="0" font-family="Virgil, Segoe UI Emoji" font-size="20px" fill="#000000" text-anchor="start" style="white-space: pre;" direction="ltr" dominant-baseline="text-before-edge">core library</text></g><g stroke-linecap="round" transform="translate(67 676) rotate(0 98.5 30)"><path d="M0.75 -1.04 C42.4 3.51, 85.24 0.98, 195.35 -0.32 M0.16 0.17 C62.71 0.86, 125.94 -0.67, 197.62 -0.42 M198.33 -1.4 C197.65 12.19, 196.97 25.36, 196.33 60.31 M196.02 -0.17 C197.44 12.67, 197.41 24.06, 197.18 60.96 M198.08 58.27 C154 59.8, 107.16 59.5, -0.75 58.45 M196.39 60.03 C157.47 59.64, 116.85 59.92, 0.97 59.69 M-0.91 61.92 C-1.18 36.99, 1.5 12.16, -1.96 1.06 M-0.43 59.22 C0.25 44.12, 1.31 29.59, 0.36 0.75" stroke="#000000" stroke-width="1" fill="none"></path></g><g transform="translate(87.20833587646484 693.5) rotate(0 78.29166412353516 12.5)"><text x="78.29166412353516" y="0" font-family="Virgil, Segoe UI Emoji" font-size="20px" fill="#1e1e1e" text-anchor="middle" style="white-space: pre;" direction="ltr" dominant-baseline="text-before-edge">typescript-fetch</text></g><g stroke-linecap="round" transform="translate(319 675) rotate(0 112 30)"><path d="M-1.34 -0.25 C51.22 2.39, 104.76 1.45, 225.3 -0.76 M0.11 0.02 C89.23 0.36, 178.92 0.64, 224.29 0.66 M222.48 -1.26 C223.3 14.73, 222.31 28.51, 224.23 59.97 M223.33 -0.99 C225.18 15.9, 224.16 32.05, 223.71 59.04 M224.7 59.58 C164.51 63.2, 106.9 61.03, -0.44 61.42 M224.41 59.9 C148.28 58.91, 72.19 58.5, 0.31 59.9 M1.14 58.97 C-0.57 45.31, 0.42 27.03, 1.44 0.46 M0.7 59.01 C0.62 39.83, 0.29 17.7, 0.66 -0.99" stroke="#000000" stroke-width="1" fill="none"></path></g><g transform="translate(343.03125 692.5) rotate(0 87.96875 12.5)"><text x="87.96875" y="0" font-family="Virgil, Segoe UI Emoji" font-size="20px" fill="#1e1e1e" text-anchor="middle" style="white-space: pre;" direction="ltr" dominant-baseline="text-before-edge">typescript-angular</text></g><g stroke-linecap="round" transform="translate(649 320) rotate(0 96 32.5)"><path d="M1.72 0.83 C63.4 0.19, 127.07 -1.09, 191.2 -0.22 M-0.95 0.23 C72.25 -0.11, 145.48 -0.46, 192.27 -0.46 M193.77 0.82 C193.59 22.19, 192.16 47.23, 191.77 66.94 M192.4 0.89 C192.83 24.18, 192.49 48.41, 191.87 65.03 M193.3 64.64 C143.65 62.01, 91.38 64.86, -1.98 63.75 M191.17 65.42 C139.97 65.37, 84.98 65.64, -0.47 65.91 M0.98 63.43 C1.73 45.2, -1.01 26.32, -1.07 -1.16 M0.03 64.55 C0.24 38.24, -0.82 13.08, -0.77 -0.81" stroke="#000000" stroke-width="1" fill="none"></path></g><g transform="translate(681.3645820617676 340) rotate(0 63.63541793823242 12.5)"><text x="63.63541793823242" y="0" font-family="Virgil, Segoe UI Emoji" font-size="20px" fill="#1e1e1e" text-anchor="middle" style="white-space: pre;" direction="ltr" dominant-baseline="text-before-edge">generation-lib</text></g><g stroke-linecap="round"><g transform="translate(658 352) rotate(0 -45.75490816216916 -0.2019744460413051)"><path d="M0.85 -1.37 C-28.24 -0.62, -54.18 1.34, -91.71 0.91 M-0.71 0.39 C-24.01 -0.45, -46.86 0.43, -92.36 0.03" stroke="#000000" stroke-width="1" fill="none"></path></g><g transform="translate(658 352) rotate(0 -45.75490816216916 -0.2019744460413051)"><path d="M-63.29 -11.53 C-73.42 -7.74, -80.31 -2.79, -91.08 0.94 M-64.86 -9.77 C-71.79 -8.38, -78.34 -4.94, -91.73 0.06" stroke="#000000" stroke-width="1" fill="none"></path></g><g transform="translate(658 352) rotate(0 -45.75490816216916 -0.2019744460413051)"><path d="M-63.35 8.99 C-73.31 6.74, -80.18 5.67, -91.08 0.94 M-64.91 10.76 C-71.97 6.98, -78.5 5.25, -91.73 0.06" stroke="#000000" stroke-width="1" fill="none"></path></g></g><mask></mask><g stroke-linecap="round" transform="translate(391.5 33.5999755859375) rotate(0 94 34)"><path d="M17 0 M17 0 C65.53 -1.91, 119.38 -1.23, 171 0 M17 0 C66.42 0.52, 113.73 0.93, 171 0 M171 0 C181.57 1.68, 189 5.23, 188 17 M171 0 C184.03 0.97, 188.73 6.1, 188 17 M188 17 C190.07 28.89, 186.63 36.83, 188 51 M188 17 C187.93 26.58, 186.8 37.62, 188 51 M188 51 C188.3 63.33, 180.6 68.46, 171 68 M188 51 C189.3 63.1, 181.11 69.97, 171 68 M171 68 C112.73 68.3, 50.96 65.47, 17 68 M171 68 C113.7 68.55, 55.01 68.81, 17 68 M17 68 C4.02 67.27, 1.32 60.79, 0 51 M17 68 C6.31 69.11, -1.96 62.36, 0 51 M0 51 C1.25 41.48, -0.86 33.36, 0 17 M0 51 C0.15 42.56, 0.26 34.98, 0 17 M0 17 C1.91 5.9, 6.23 0.18, 17 0 M0 17 C-0.64 7.86, 4.56 -0.4, 17 0" stroke="#1e1e1e" stroke-width="1" fill="none"></path></g><g transform="translate(431.4895820617676 55.0999755859375) rotate(0 54.01041793823242 12.5)"><text x="54.01041793823242" y="0" font-family="Virgil, Segoe UI Emoji" font-size="20px" fill="#1e1e1e" text-anchor="middle" style="white-space: pre;" direction="ltr" dominant-baseline="text-before-edge">Entry point</text></g><g stroke-linecap="round" transform="translate(647.5 31.5999755859375) rotate(0 94 34)"><path d="M17 0 M17 0 C62.79 2.63, 110.62 1.26, 171 0 M17 0 C57.95 -1.26, 97.68 -1.58, 171 0 M171 0 C183 1.35, 188.01 4.89, 188 17 M171 0 C180.6 1.89, 188.91 6.31, 188 17 M188 17 C187.25 26.38, 186.82 34, 188 51 M188 17 C188.01 27.15, 188.05 37.85, 188 51 M188 51 C188.82 62.52, 181.12 68.17, 171 68 M188 51 C189.7 62.99, 180.91 69.68, 171 68 M171 68 C108.87 67.44, 50.72 68.55, 17 68 M171 68 C133.51 66.94, 95.89 67.92, 17 68 M17 68 C4.98 69.54, 1.99 62.11, 0 51 M17 68 C4 67.04, -2.11 62.11, 0 51 M0 51 C0.57 36.05, 1.52 24.63, 0 17 M0 51 C-1.21 43.74, -1.05 35.5, 0 17 M0 17 C1.57 4.31, 4.76 -1.95, 17 0 M0 17 C-1.63 4.37, 4.09 1.23, 17 0" stroke="#1e1e1e" stroke-width="1" fill="none"></path></g><g transform="translate(714.2083339691162 53.0999755859375) rotate(0 27.29166603088379 12.5)"><text x="27.29166603088379" y="0" font-family="Virgil, Segoe UI Emoji" font-size="20px" fill="#1e1e1e" text-anchor="middle" style="white-space: pre;" direction="ltr" dominant-baseline="text-before-edge">config</text></g><g stroke-linecap="round"><g transform="translate(649.5 62.5999755859375) rotate(0 -33.80820392813996 1.5081847544433487)"><path d="M-0.1 -0.92 C-11.05 -0.46, -55.57 1.97, -66.72 2.95 M-1.61 1.2 C-12.61 1.76, -56.5 3.62, -67.52 3.94" stroke="#1e1e1e" stroke-width="1" fill="none"></path></g><g transform="translate(649.5 62.5999755859375) rotate(0 -33.80820392813996 1.5081847544433487)"><path d="M-41.26 -6.88 C-47.5 -4.86, -50.18 -2.28, -65.77 3.02 M-40.37 -6.6 C-45.16 -5.13, -51.94 -3.04, -68.49 3.02" stroke="#1e1e1e" stroke-width="1" fill="none"></path></g><g transform="translate(649.5 62.5999755859375) rotate(0 -33.80820392813996 1.5081847544433487)"><path d="M-40.51 13.63 C-46.94 11.19, -49.79 9.3, -65.77 3.02 M-39.62 13.9 C-44.41 11.03, -51.35 8.77, -68.49 3.02" stroke="#1e1e1e" stroke-width="1" fill="none"></path></g></g><mask></mask><g stroke-linecap="round"><g transform="translate(484.5 105.5999755859375) rotate(0 -0.00173403844237896 36.3501619339455)"><path d="M-0.97 1.04 C-0.8 12.97, 0.76 59.01, 0.97 70.76 M0.72 0.54 C0.73 12.72, -0.35 60.68, 0.01 72.17" stroke="#1e1e1e" stroke-width="1" fill="none"></path></g><g transform="translate(484.5 105.5999755859375) rotate(0 -0.00173403844237896 36.3501619339455)"><path d="M-8.53 43.92 C-7.82 51.25, -3.48 60.54, -0.3 73.26 M-9.5 43.83 C-6.84 49.44, -6.01 55.86, -0.75 72.1" stroke="#1e1e1e" stroke-width="1" fill="none"></path></g><g transform="translate(484.5 105.5999755859375) rotate(0 -0.00173403844237896 36.3501619339455)"><path d="M11.99 43.92 C6.62 51.09, 4.87 60.37, -0.3 73.26 M11.03 43.83 C9.15 49.3, 5.47 55.72, -0.75 72.1" stroke="#1e1e1e" stroke-width="1" fill="none"></path></g></g><mask></mask><g stroke-linecap="round" transform="translate(597.5 676.5999755859375) rotate(0 112 30)"><path d="M1.53 0.23 C60.12 -0.25, 119.44 0.52, 222.6 -1.45 M0.46 0.45 C58.3 -1.1, 118.11 -2.44, 223.14 -0.44 M225.29 1.19 C225.74 13.27, 223.24 26.83, 223.22 61.76 M224.92 -0.47 C223.08 17.3, 222.98 32.9, 224.1 60.07 M225.38 59.48 C156.43 62.41, 84.01 60.2, 0.99 59.33 M223.91 59.45 C165.07 57.22, 106.26 57.54, 0.81 60.5 M1.85 61.4 C0.36 38.4, 1.52 19.51, -0.51 -0.53 M-0.16 60.96 C0.26 37.53, -0.64 14.55, 0.71 0.43" stroke="#000000" stroke-width="1" fill="none"></path></g><g transform="translate(640.0625 694.0999755859375) rotate(0 69.4375 12.5)"><text x="69.4375" y="0" font-family="Virgil, Segoe UI Emoji" font-size="20px" fill="#1e1e1e" text-anchor="middle" style="white-space: pre;" direction="ltr" dominant-baseline="text-before-edge">typescript-koa</text></g><g stroke-linecap="round" transform="translate(317.5 831.5999755859375) rotate(0 112 30)"><path d="M-1.39 1.4 C67.32 -2.06, 136.3 -3.44, 223.77 0.03 M-0.76 -0.32 C58.66 -0.12, 116.53 -0.44, 224 0.4 M222.94 0.29 C223.41 15.23, 223.2 35.51, 223.38 58 M223.39 -0.09 C224.45 15.92, 225.02 32.08, 224.5 60.66 M224.33 60.7 C168.47 62.45, 111.66 61.49, -0.5 59.01 M223.39 59.8 C172.91 60.97, 119.59 60.66, -0.52 60.13 M0.3 58.76 C1.23 38.22, 0.08 15.19, 0.63 1.39 M-0.8 60.39 C1.29 44.89, 1.54 30.87, 0.41 0.09" stroke="#000000" stroke-width="1" fill="none"></path></g><g transform="translate(396.0625 849.0999755859375) rotate(0 33.4375 12.5)"><text x="33.4375" y="0" font-family="Virgil, Segoe UI Emoji" font-size="20px" fill="#1e1e1e" text-anchor="middle" style="white-space: pre;" direction="ltr" dominant-baseline="text-before-edge">common</text></g><g stroke-linecap="round"><g transform="translate(309.5 827.5999755859375) rotate(0 -50.79301801169757 -41.62478522434827)"><path d="M-0.09 1.04 C-16.75 -13.17, -83.9 -70.18, -100.36 -84.29 M-1.59 0.54 C-18.4 -13.57, -85.26 -68.53, -101.5 -82.91" stroke="#1e1e1e" stroke-width="1" fill="none"></path></g><g transform="translate(309.5 827.5999755859375) rotate(0 -50.79301801169757 -41.62478522434827)"><path d="M-71.63 -73.09 C-81.43 -73.37, -87.78 -76.79, -102.56 -82.54 M-72.76 -72.97 C-81.31 -74.81, -87.91 -77.02, -102.09 -83" stroke="#1e1e1e" stroke-width="1" fill="none"></path></g><g transform="translate(309.5 827.5999755859375) rotate(0 -50.79301801169757 -41.62478522434827)"><path d="M-84.91 -57.44 C-91.3 -61.89, -94.11 -69.47, -102.56 -82.54 M-86.04 -57.32 C-91.12 -63.04, -94.4 -69.17, -102.09 -83" stroke="#1e1e1e" stroke-width="1" fill="none"></path></g></g><mask></mask><g stroke-linecap="round"><g transform="translate(437.5 826.5999755859375) rotate(0 -0.25600992196240213 -41.60055980309846)"><path d="M-0.27 0.64 C-0.68 -13.27, -1.61 -69.54, -1.92 -83.84 M1.79 -0.08 C1.26 -13.73, -1.6 -68.16, -2.3 -82.21" stroke="#1e1e1e" stroke-width="1" fill="none"></path></g><g transform="translate(437.5 826.5999755859375) rotate(0 -0.25600992196240213 -41.60055980309846)"><path d="M10.45 -52.79 C5.68 -62.76, -0.56 -75.1, -1.98 -83.11 M8.7 -55.27 C6.08 -64.3, 1.13 -73.04, -2.88 -82.47" stroke="#1e1e1e" stroke-width="1" fill="none"></path></g><g transform="translate(437.5 826.5999755859375) rotate(0 -0.25600992196240213 -41.60055980309846)"><path d="M-10.05 -51.74 C-7.68 -62.03, -6.79 -74.74, -1.98 -83.11 M-11.79 -54.22 C-7.74 -63.5, -6.01 -72.58, -2.88 -82.47" stroke="#1e1e1e" stroke-width="1" fill="none"></path></g></g><mask></mask><g stroke-linecap="round"><g transform="translate(538.5 827.5999755859375) rotate(0 57.47506276595874 -41.605999752134096)"><path d="M0.9 0.81 C19.98 -13.31, 96.36 -70.06, 115.03 -84.03 M-0.08 0.2 C18.88 -13.79, 95.4 -68.34, 114.62 -82.5" stroke="#1e1e1e" stroke-width="1" fill="none"></path></g><g transform="translate(538.5 827.5999755859375) rotate(0 57.47506276595874 -41.605999752134096)"><path d="M99.15 -55.95 C103.42 -68.14, 111 -73.82, 115.65 -81.67 M97.15 -58.51 C104.32 -65.48, 110.66 -74.6, 114.76 -81.62" stroke="#1e1e1e" stroke-width="1" fill="none"></path></g><g transform="translate(538.5 827.5999755859375) rotate(0 57.47506276595874 -41.605999752134096)"><path d="M87.13 -72.57 C95.65 -79.11, 107.39 -79.04, 115.65 -81.67 M85.12 -75.14 C96.41 -76.32, 106.97 -79.61, 114.76 -81.62" stroke="#1e1e1e" stroke-width="1" fill="none"></path></g></g><mask></mask><g stroke-linecap="round" transform="translate(10.5 1024.5999755859375) rotate(0 428.50000000000006 99.5)"><path d="M0.05 -0.39 C329.37 0.32, 658.64 1.01, 856.72 -0.51 M0.22 -0.18 C201.13 2.1, 402.51 2, 857.3 -0.38 M857.35 -1.82 C853.91 66.92, 855.94 138.47, 855.35 199.9 M857.13 0.29 C857.81 48.8, 859 97.47, 857.75 199.97 M856.52 198.51 C657.67 197.2, 456.85 197.78, 0.24 199.09 M857.23 198.75 C657.18 200.34, 457.43 200.34, -0.25 199.37 M-1.26 200.89 C0.06 142.57, 2.34 84.34, -0.27 1.78 M-0.37 199.02 C-0.15 134.48, -0.8 71.5, 0.06 -0.29" stroke="#1e1e1e" stroke-width="1" fill="none"></path></g><g stroke-linecap="round" transform="translate(313.5 1089.5999755859375) rotate(0 101.5 36)"><path d="M-1.28 -0.41 C80.68 -0.36, 163.74 1, 201.3 1.57 M0.02 0.2 C77.95 0.07, 156.81 -1.25, 203.52 -0.48 M204.37 -1.17 C202.94 23.91, 203.76 50.24, 202.67 72.67 M203.04 0.37 C202.7 21.53, 202.9 41.89, 203.24 72.94 M202.35 73.76 C127.73 74.36, 51.1 73.29, -0.43 72.84 M203.52 72.73 C124.23 73.66, 45.5 72.93, -0.08 72.13 M1.83 73.23 C-1.15 50.36, -1.95 31.57, -0.75 -0.73 M-0.67 71.58 C-0.79 49.76, -0.2 28.07, -0.85 -0.5" stroke="#1e1e1e" stroke-width="1" fill="none"></path></g><g transform="translate(332.59375 1100.5999755859375) rotate(0 82.40625 25)"><text x="82.40625" y="0" font-family="Virgil, Segoe UI Emoji" font-size="20px" fill="#1e1e1e" text-anchor="middle" style="white-space: pre;" direction="ltr" dominant-baseline="text-before-edge">typescript-fetch-</text><text x="82.40625" y="25" font-family="Virgil, Segoe UI Emoji" font-size="20px" fill="#1e1e1e" text-anchor="middle" style="white-space: pre;" direction="ltr" dominant-baseline="text-before-edge">runtime</text></g><g stroke-linecap="round" transform="translate(587 1090.5999755859375) rotate(0 101.5 36)"><path d="M-1.52 -0.77 C56.01 -2.69, 114.91 -2.82, 204.06 0.63 M-0.39 -0.21 C49.56 -1.73, 100.5 -1.03, 203.51 -0.52 M202.92 1.67 C204.55 13.88, 203.28 28.91, 204.92 72.21 M202.6 0.55 C203.67 19.38, 203.28 39.01, 203.23 72.36 M201.82 70.3 C132.44 74.61, 60.36 74.67, -0.17 70.85 M202.8 71.43 C129.25 72.8, 55.12 71.28, 0.14 72.82 M1.53 72.73 C0.36 53.63, -1.72 38.5, -0.4 -0.9 M-0.36 72.68 C0.65 54.54, -1.26 36.85, 0.9 0.86" stroke="#1e1e1e" stroke-width="1" fill="none"></path></g><g transform="translate(614.9479141235352 1101.5999755859375) rotate(0 73.55208587646484 25)"><text x="73.55208587646484" y="0" font-family="Virgil, Segoe UI Emoji" font-size="20px" fill="#1e1e1e" text-anchor="middle" style="white-space: pre;" direction="ltr" dominant-baseline="text-before-edge">typescript-koa-</text><text x="73.55208587646484" y="25" font-family="Virgil, Segoe UI Emoji" font-size="20px" fill="#1e1e1e" text-anchor="middle" style="white-space: pre;" direction="ltr" dominant-baseline="text-before-edge">runtime</text></g><g transform="translate(34.5 1053.5999755859375) rotate(0 83.34375 12.5)"><text x="0" y="0" font-family="Virgil, Segoe UI Emoji" font-size="20px" fill="#1e1e1e" text-anchor="start" style="white-space: pre;" direction="ltr" dominant-baseline="text-before-edge">runtime packages</text></g></svg>