<svg version="1.1" xmlns="http://www.w3.org/2000/svg" viewBox="0 0 860 220" width="860" height="220">
  <!-- svg-source:excalidraw -->
  
  <defs>
    <style class="style-fonts">
      @font-face {
        font-family: "Virgil";
        src: url("https://excalidraw.com/Virgil.woff2");
      }
      @font-face {
        font-family: "Cascadia";
        src: url("https://excalidraw.com/Cascadia.woff2");
      }
      @font-face {
        font-family: "Assistant";
        src: url("https://excalidraw.com/Assistant-Regular.woff2");
      }
    </style>
    
  </defs>
  <rect x="0" y="0" width="860" height="220" fill="#ffffff"></rect><g stroke-linecap="round" transform="translate(10 10) rotate(0 420 100)"><path d="M0 0 C322.64 0.58, 645.43 0.3, 840 0 M0 0 C294.68 0.93, 589.77 0.97, 840 0 M840 0 C840.26 69.71, 839.76 143.68, 840 200 M840 0 C840.08 41.33, 839.98 81.71, 840 200 M840 200 C658.43 202.45, 477.76 202.68, 0 200 M840 200 C548.03 200.81, 256.79 200.59, 0 200 M0 200 C0.05 123.8, -3.14 48.65, 0 0 M0 200 C0.52 123.78, -0.27 46.28, 0 0" stroke="#1e1e1e" stroke-width="1" fill="none"></path></g><g stroke-linecap="round" transform="translate(250 70) rotate(0 101.5 36)"><path d="M0 0 C79.84 -1.14, 161.8 -0.36, 203 0 M0 0 C78.67 2.49, 155.59 1.93, 203 0 M203 0 C204.24 22.73, 201.29 44.63, 203 72 M203 0 C203.71 18.41, 202.77 35.16, 203 72 M203 72 C153.9 72.62, 105.22 72.53, 0 72 M203 72 C140.14 73.24, 77.9 72.76, 0 72 M0 72 C-0.95 49.35, -1.4 27.25, 0 0 M0 72 C-0.33 45.29, -0.22 19.94, 0 0" stroke="#1e1e1e" stroke-width="1" fill="none"></path></g><g transform="translate(280.3833312988281 83) rotate(0 71.11666870117188 23)"><text x="71.11666870117188" y="0" font-family="Helvetica, Segoe UI Emoji" font-size="20px" fill="#1e1e1e" text-anchor="middle" style="white-space: pre;" direction="ltr" dominant-baseline="text-before-edge">typescript-fetch-</text><text x="71.11666870117188" y="23" font-family="Helvetica, Segoe UI Emoji" font-size="20px" fill="#1e1e1e" text-anchor="middle" style="white-space: pre;" direction="ltr" dominant-baseline="text-before-edge">runtime</text></g><g stroke-linecap="round" transform="translate(510 70) rotate(0 101.5 36)"><path d="M0 0 C55.86 -2.16, 113.39 -2.69, 203 0 M0 0 C62.93 -1.54, 126.02 -0.32, 203 0 M203 0 C202.42 17.91, 204 38, 203 72 M203 0 C202.62 17.39, 203.13 35.35, 203 72 M203 72 C151.29 71.9, 95.69 71.77, 0 72 M203 72 C127.74 72.6, 51.56 72.41, 0 72 M0 72 C-1.39 49.92, -1.58 23.53, 0 0 M0 72 C0.27 47.64, -1.26 24.09, 0 0" stroke="#1e1e1e" stroke-width="1" fill="none"></path></g><g transform="translate(545.9333343505859 83) rotate(0 65.56666564941406 23)"><text x="65.56666564941406" y="0" font-family="Helvetica, Segoe UI Emoji" font-size="20px" fill="#1e1e1e" text-anchor="middle" style="white-space: pre;" direction="ltr" dominant-baseline="text-before-edge">typescript-koa-</text><text x="65.56666564941406" y="23" font-family="Helvetica, Segoe UI Emoji" font-size="20px" fill="#1e1e1e" text-anchor="middle" style="white-space: pre;" direction="ltr" dominant-baseline="text-before-edge">runtime</text></g><g transform="translate(30 30) rotate(0 78.90833282470703 11.5)"><text x="0" y="0" font-family="Helvetica, Segoe UI Emoji" font-size="20px" fill="#1e1e1e" text-anchor="start" style="white-space: pre;" direction="ltr" dominant-baseline="text-before-edge">runtime packages</text></g></svg>