<svg version="1.1" xmlns="http://www.w3.org/2000/svg" viewBox="0 0 860 540" width="860" height="540">
  <!-- svg-source:excalidraw -->
  
  <defs>
    <style class="style-fonts">
      @font-face {
        font-family: "Virgil";
        src: url("https://excalidraw.com/Virgil.woff2");
      }
      @font-face {
        font-family: "Cascadia";
        src: url("https://excalidraw.com/Cascadia.woff2");
      }
      @font-face {
        font-family: "Assistant";
        src: url("https://excalidraw.com/Assistant-Regular.woff2");
      }
    </style>
    
  </defs>
  <rect x="0" y="0" width="860" height="540" fill="#ffffff"></rect><g stroke-linecap="round" transform="translate(370 190) rotate(0 80 30)"><path d="M0 0 C51.87 -1.93, 103.33 0.62, 160 0 M0 0 C40.11 1.89, 82.19 0.92, 160 0 M160 0 C161.28 13.66, 159.88 23.1, 160 60 M160 0 C160.42 12.99, 159.01 27.77, 160 60 M160 60 C107.08 60.32, 50.2 60.07, 0 60 M160 60 C118.58 59.86, 75.45 60.38, 0 60 M0 60 C0.33 40.73, -0.34 18.38, 0 0 M0 60 C-1.3 37.37, -1.04 15.08, 0 0" stroke="#000000" stroke-width="1" fill="none"></path></g><g transform="translate(406.09166717529297 208.5) rotate(0 43.90833282470703 11.5)"><text x="43.90833282470703" y="0" font-family="Helvetica, Segoe UI Emoji" font-size="20px" fill="#1e1e1e" text-anchor="middle" style="white-space: pre;" direction="ltr" dominant-baseline="text-before-edge">file-loader</text></g><g stroke-linecap="round" transform="translate(370 310) rotate(0 81.5 30)"><path d="M0 0 C49.01 -1.74, 99.1 0.77, 163 0 M0 0 C52.51 0.27, 105.21 1.22, 163 0 M163 0 C161.75 12.51, 164.82 28.52, 163 60 M163 0 C162.44 16.4, 163.71 32.58, 163 60 M163 60 C102.77 61.14, 41.16 59.82, 0 60 M163 60 C107.75 60.38, 51.74 60.23, 0 60 M0 60 C1.43 38.43, 1.73 17.01, 0 0 M0 60 C-0.25 42.65, -1.28 23.58, 0 0" stroke="#000000" stroke-width="1" fill="none"></path></g><g transform="translate(384.8000030517578 328.5) rotate(0 66.69999694824219 11.5)"><text x="66.69999694824219" y="0" font-family="Helvetica, Segoe UI Emoji" font-size="20px" fill="#1e1e1e" text-anchor="middle" style="white-space: pre;" direction="ltr" dominant-baseline="text-before-edge">openapi-loader</text></g><g stroke-linecap="round" transform="translate(590 190) rotate(0 110 30)"><path d="M0 0 C72.72 -1.65, 143.64 0.31, 220 0 M0 0 C67.91 -0.84, 134.58 -1.97, 220 0 M220 0 C220.32 11.18, 220.37 27.43, 220 60 M220 0 C220.72 22.39, 220.25 47.24, 220 60 M220 60 C134.97 59.41, 50.2 61.22, 0 60 M220 60 C134.98 60.38, 50.4 60.54, 0 60 M0 60 C-0.34 36.65, -0.94 16.54, 0 0 M0 60 C-0.45 42.25, -0.95 23.41, 0 0" stroke="#000000" stroke-width="1" fill="none"></path></g><g transform="translate(623.3000030517578 208.5) rotate(0 76.69999694824219 11.5)"><text x="76.69999694824219" y="0" font-family="Helvetica, Segoe UI Emoji" font-size="20px" fill="#1e1e1e" text-anchor="middle" style="white-space: pre;" direction="ltr" dominant-baseline="text-before-edge">openapi-validator</text></g><g stroke-linecap="round"><g transform="translate(451.03572862947874 254) rotate(0 -0.5427763436458122 27.50000000000003)"><path d="M0 0 C-0.85 14.15, 0 22.89, -1.09 55 M0 0 C-0.12 16.35, -0.46 32.77, -1.09 55" stroke="#000000" stroke-width="1" fill="none"></path></g><g transform="translate(451.03572862947874 254) rotate(0 -0.5427763436458122 27.50000000000003)"><path d="M-9.02 31.29 C-7.91 38.34, -5.02 40.01, -1.09 55 M-9.02 31.29 C-6.34 38.57, -4.05 45.86, -1.09 55" stroke="#000000" stroke-width="1" fill="none"></path></g><g transform="translate(451.03572862947874 254) rotate(0 -0.5427763436458122 27.50000000000003)"><path d="M8.08 31.74 C5.33 38.77, 4.36 40.35, -1.09 55 M8.08 31.74 C5.77 38.78, 3.07 45.94, -1.09 55" stroke="#000000" stroke-width="1" fill="none"></path></g></g><mask></mask><g stroke-linecap="round"><g transform="translate(680.7841985194816 251) rotate(0 -88.19351285134798 29)"><path d="M0 0 C-64.98 20.19, -131.15 42.38, -176.39 58 M0 0 C-46.28 17.06, -91.94 31.66, -176.39 58" stroke="#000000" stroke-width="1" fill="none"></path></g><g transform="translate(680.7841985194816 251) rotate(0 -88.19351285134798 29)"><path d="M-156.54 42.8 C-164.05 47.31, -172.49 53.72, -176.39 58 M-156.54 42.8 C-162.27 47.42, -167.07 50.84, -176.39 58" stroke="#000000" stroke-width="1" fill="none"></path></g><g transform="translate(680.7841985194816 251) rotate(0 -88.19351285134798 29)"><path d="M-151.41 59.12 C-160.92 57.6, -171.25 58, -176.39 58 M-151.41 59.12 C-158.6 59.52, -164.74 58.69, -176.39 58" stroke="#000000" stroke-width="1" fill="none"></path></g></g><mask></mask><g stroke-linecap="round" transform="translate(90 310) rotate(0 90 30)"><path d="M0 0 C51.85 0.71, 102.41 -2.74, 180 0 M0 0 C42.08 -1.54, 82.96 -1.2, 180 0 M180 0 C178.49 14.71, 180.65 28.29, 180 60 M180 0 C179.51 17.89, 180.38 34.45, 180 60 M180 60 C118.55 56.72, 61.51 57.93, 0 60 M180 60 C140.26 61.45, 99.52 60.74, 0 60 M0 60 C0.13 43.2, -0.34 29.77, 0 0 M0 60 C-0.92 37.96, -0.9 15.82, 0 0" stroke="#000000" stroke-width="1" fill="none"></path></g><g transform="translate(117.20000076293944 328.5) rotate(0 62.799999237060554 11.5)"><text x="62.79999923706055" y="0" font-family="Helvetica, Segoe UI Emoji" font-size="20px" fill="#1e1e1e" text-anchor="middle" style="white-space: pre;" direction="ltr" dominant-baseline="text-before-edge">openapi-types</text></g><g stroke-linecap="round"><g transform="translate(271 348.62302483136693) rotate(0 46.60688307898042 -1.0520741102968145)"><path d="M0 0 C31.72 1.37, 64.24 1.07, 93.21 -2.1 M0 0 C32.45 -0.46, 63.61 -1.57, 93.21 -2.1" stroke="#000000" stroke-width="1" fill="none"></path></g><g transform="translate(271 348.62302483136693) rotate(0 46.60688307898042 -1.0520741102968145)"><path d="M69.92 6.97 C78.05 5.37, 87.04 2.73, 93.21 -2.1 M69.92 6.97 C78.5 3.93, 85.73 0.43, 93.21 -2.1" stroke="#000000" stroke-width="1" fill="none"></path></g><g transform="translate(271 348.62302483136693) rotate(0 46.60688307898042 -1.0520741102968145)"><path d="M69.54 -10.13 C77.93 -5.97, 87.05 -2.85, 93.21 -2.1 M69.54 -10.13 C78.14 -7.32, 85.51 -4.97, 93.21 -2.1" stroke="#000000" stroke-width="1" fill="none"></path></g></g><mask></mask><g stroke-linecap="round" transform="translate(370 430) rotate(0 80 30)"><path d="M0 0 C37.51 1.43, 77.13 1.36, 160 0 M0 0 C55.74 -0.58, 112.64 0.49, 160 0 M160 0 C161.62 22.09, 160.06 42.74, 160 60 M160 0 C160.8 12.64, 160.05 24.8, 160 60 M160 60 C117.78 60.95, 77.7 61.28, 0 60 M160 60 C106.33 60.26, 51.65 61.21, 0 60 M0 60 C-0.05 37.16, 0.76 16.62, 0 0 M0 60 C-0.06 42.35, -0.42 25.06, 0 0" stroke="#000000" stroke-width="1" fill="none"></path></g><g transform="translate(428.32500076293945 448.5) rotate(0 21.674999237060547 11.5)"><text x="21.674999237060547" y="0" font-family="Helvetica, Segoe UI Emoji" font-size="20px" fill="#1e1e1e" text-anchor="middle" style="white-space: pre;" direction="ltr" dominant-baseline="text-before-edge">input</text></g><g stroke-linecap="round" transform="translate(30 410) rotate(0 130 40)"><path d="M0 0 C66.42 1.96, 132.87 1.94, 260 0 M0 0 C65.94 1.19, 133.15 0.27, 260 0 M260 0 C260.28 30.64, 261.68 60.62, 260 80 M260 0 C260.49 21.24, 259.88 43.5, 260 80 M260 80 C196.65 79.3, 134.62 77.82, 0 80 M260 80 C169.62 81.53, 79.65 81.56, 0 80 M0 80 C0.81 50.69, 1.64 17.38, 0 0 M0 80 C0.43 52.79, 0.83 27.43, 0 0" stroke="#000000" stroke-width="1" fill="none"></path></g><g transform="translate(44.958335876464844 438.5) rotate(0 115.04166412353516 11.5)"><text x="115.04166412353516" y="0" font-family="Helvetica, Segoe UI Emoji" font-size="20px" fill="#1e1e1e" text-anchor="middle" style="white-space: pre;" direction="ltr" dominant-baseline="text-before-edge">openapi-types-normalized</text></g><g stroke-linecap="round"><g transform="translate(295.7093759698405 458.571140089658) rotate(0 34.563150025944765 0.12497011914206269)"><path d="M0 0 C16.53 1.7, 32.42 -0.06, 69.13 0.25 M0 0 C22.96 1.53, 43.43 1.18, 69.13 0.25" stroke="#000000" stroke-width="1" fill="none"></path></g><g transform="translate(295.7093759698405 458.571140089658) rotate(0 34.563150025944765 0.12497011914206269)"><path d="M45.9 9.49 C51.29 8.89, 56.11 4.84, 69.13 0.25 M45.9 9.49 C54.19 7.64, 60 4.26, 69.13 0.25" stroke="#000000" stroke-width="1" fill="none"></path></g><g transform="translate(295.7093759698405 458.571140089658) rotate(0 34.563150025944765 0.12497011914206269)"><path d="M45.39 -7.61 C51.03 -4.08, 55.97 -4.01, 69.13 0.25 M45.39 -7.61 C53.83 -3.99, 59.8 -1.9, 69.13 0.25" stroke="#000000" stroke-width="1" fill="none"></path></g></g><mask></mask><g stroke-linecap="round"><g transform="translate(450 370) rotate(0 0.2817880161726407 30)"><path d="M0 0 C0.91 13.83, 2.11 25.52, 0.56 60 M0 0 C0.2 13.65, -1.01 27.81, 0.56 60" stroke="#000000" stroke-width="1" fill="none"></path></g><g transform="translate(450 370) rotate(0 0.2817880161726407 30)"><path d="M-8.73 36.79 C-6.03 42.76, -2.96 46.57, 0.56 60 M-8.73 36.79 C-6.16 41.71, -5.3 47.13, 0.56 60" stroke="#000000" stroke-width="1" fill="none"></path></g><g transform="translate(450 370) rotate(0 0.2817880161726407 30)"><path d="M8.37 36.25 C7.41 42.29, 6.81 46.22, 0.56 60 M8.37 36.25 C6.87 41.27, 3.66 46.81, 0.56 60" stroke="#000000" stroke-width="1" fill="none"></path></g></g><mask></mask><g stroke-linecap="round" transform="translate(10 10) rotate(0 420 260)"><path d="M0 0 C290.77 0.63, 583.25 1.22, 840 0 M0 0 C185.77 0.91, 372 0.5, 840 0 M840 0 C841.4 148.87, 841.44 297.33, 840 520 M840 0 C838.22 183.5, 837.84 366.84, 840 520 M840 520 C595.04 521.19, 349.61 522.32, 0 520 M840 520 C669.29 520.97, 497.9 520.44, 0 520 M0 520 C-1.2 396.72, -1.54 275.75, 0 0 M0 520 C0.49 388.48, -0.19 256.85, 0 0" stroke="#000000" stroke-width="1" fill="none"></path></g><g transform="translate(30 30) rotate(0 49.45833206176758 11.5)"><text x="0" y="0" font-family="Helvetica, Segoe UI Emoji" font-size="20px" fill="#000000" text-anchor="start" style="white-space: pre;" direction="ltr" dominant-baseline="text-before-edge">core library</text></g><g stroke-linecap="round" transform="translate(590 310) rotate(0 110 30)"><path d="M0 0 C73.28 1.18, 144.23 0.23, 220 0 M0 0 C85.23 1.47, 170.96 0.8, 220 0 M220 0 C220.05 10.61, 219.35 25.13, 220 60 M220 0 C220.71 16.15, 220.78 31.22, 220 60 M220 60 C167.78 61.99, 117.18 60.35, 0 60 M220 60 C154.36 61.78, 87.72 61.91, 0 60 M0 60 C0.74 41.14, 1.28 25.21, 0 0 M0 60 C1.14 36.06, -0.2 13.87, 0 0" stroke="#000000" stroke-width="1" fill="none"></path></g><g transform="translate(639.4166679382324 328.5) rotate(0 60.58333206176758 11.5)"><text x="60.58333206176758" y="0" font-family="Helvetica, Segoe UI Emoji" font-size="20px" fill="#1e1e1e" text-anchor="middle" style="white-space: pre;" direction="ltr" dominant-baseline="text-before-edge">generation-lib</text></g><g stroke-linecap="round"><g transform="translate(590 350) rotate(0 -30 0)"><path d="M0 0 C-16.78 -1.4, -36.18 -0.6, -60 0 M0 0 C-19.05 -0.1, -38.34 0.91, -60 0" stroke="#000000" stroke-width="1" fill="none"></path></g><g transform="translate(590 350) rotate(0 -30 0)"><path d="M-36.34 -8.07 C-42.5 -7.09, -51.21 -3.91, -60 0 M-36.34 -8.07 C-43.52 -5.78, -51 -2.15, -60 0" stroke="#000000" stroke-width="1" fill="none"></path></g><g transform="translate(590 350) rotate(0 -30 0)"><path d="M-36.69 9.03 C-42.62 4.99, -51.23 3.14, -60 0 M-36.69 9.03 C-43.87 5.76, -51.24 3.83, -60 0" stroke="#000000" stroke-width="1" fill="none"></path></g></g><mask></mask><g stroke-linecap="round" transform="translate(350 50) rotate(0 100 30)"><path d="M15 0 C68.77 -1.91, 127.86 -1.23, 185 0 M15 0 C69.48 0.52, 121.84 0.94, 185 0 M185 0 C194.24 1.68, 201 4.56, 200 15 M185 0 C196.7 0.97, 200.73 5.44, 200 15 M200 15 C202.05 25.67, 198.6 32.39, 200 45 M200 15 C199.97 23.34, 198.83 33.15, 200 45 M200 45 C200.3 55.99, 193.26 60.46, 185 60 M200 45 C201.3 55.77, 193.77 61.97, 185 60 M185 60 C120.55 60.19, 52.62 57.37, 15 60 M185 60 C121.65 60.7, 56.92 60.96, 15 60 M15 60 C3.35 59.27, 1.32 53.46, 0 45 M15 60 C5.65 61.11, -1.96 55.02, 0 45 M0 45 C1.25 36.5, -0.85 29.41, 0 15 M0 45 C0.16 37.51, 0.27 30.87, 0 15 M0 15 C1.91 5.23, 5.56 0.18, 15 0 M0 15 C-0.64 7.19, 3.89 -0.4, 15 0" stroke="#1e1e1e" stroke-width="1" fill="none"></path></g><g transform="translate(402.21666717529297 68.5) rotate(0 47.78333282470703 11.5)"><text x="47.78333282470703" y="0" font-family="Helvetica, Segoe UI Emoji" font-size="20px" fill="#1e1e1e" text-anchor="middle" style="white-space: pre;" direction="ltr" dominant-baseline="text-before-edge">Entry point</text></g><g stroke-linecap="round" transform="translate(630 50) rotate(0 90 30)"><path d="M15 0 C59.57 2.6, 106.17 1.23, 165 0 M15 0 C54.9 -1.24, 93.58 -1.56, 165 0 M165 0 C175.67 1.35, 180.01 4.22, 180 15 M165 0 C173.27 1.89, 180.91 5.64, 180 15 M180 15 C179.23 23.46, 178.81 30.15, 180 45 M180 15 C180.01 23.87, 180.04 33.29, 180 45 M180 45 C180.82 55.19, 173.78 60.17, 165 60 M180 45 C181.7 55.65, 173.58 61.68, 165 60 M165 60 C104.45 59.47, 47.88 60.57, 15 60 M165 60 C128.47 58.96, 91.82 59.94, 15 60 M15 60 C4.31 61.54, 1.99 54.78, 0 45 M15 60 C3.34 59.04, -2.11 54.78, 0 45 M0 45 C0.61 31.6, 1.56 21.73, 0 15 M0 45 C-1.18 38.69, -1.02 31.41, 0 15 M0 15 C1.57 3.64, 4.09 -1.95, 15 0 M0 15 C-1.63 3.7, 3.43 1.23, 15 0" stroke="#1e1e1e" stroke-width="1" fill="none"></path></g><g transform="translate(693.3250007629395 68.5) rotate(0 26.674999237060547 11.5)"><text x="26.674999237060547" y="0" font-family="Helvetica, Segoe UI Emoji" font-size="20px" fill="#1e1e1e" text-anchor="middle" style="white-space: pre;" direction="ltr" dominant-baseline="text-before-edge">config</text></g><g stroke-linecap="round"><g transform="translate(625.5 80.6817249977949) rotate(0 -36.24999999999994 0.6537133448964312)"><path d="M-0.1 -0.92 C-11.97 -0.91, -60.16 -0.27, -72.22 0.26 M-1.61 1.2 C-13.53 1.31, -61.08 1.37, -73.02 1.25" stroke="#1e1e1e" stroke-width="1" fill="none"></path></g><g transform="translate(625.5 80.6817249977949) rotate(0 -36.24999999999994 0.6537133448964312)"><path d="M-49.49 -7.22 C-56.14 -4.92, -61.46 -3.49, -73.02 1.25 M-49.49 -7.22 C-58.91 -4.67, -68.15 -0.45, -73.02 1.25" stroke="#1e1e1e" stroke-width="1" fill="none"></path></g><g transform="translate(625.5 80.6817249977949) rotate(0 -36.24999999999994 0.6537133448964312)"><path d="M-49.56 9.88 C-56.21 8.46, -61.52 6.17, -73.02 1.25 M-49.56 9.88 C-58.96 5.92, -68.18 3.63, -73.02 1.25" stroke="#1e1e1e" stroke-width="1" fill="none"></path></g></g><mask></mask><g stroke-linecap="round"><g transform="translate(450.97268677577375 109.46471784274092) rotate(0 -0.48634338788687614 40.26764107862954)"><path d="M-0.97 1.04 C-1.13 14.56, -0.89 66.95, -1 80.29 M0.72 0.54 C0.4 14.31, -1.99 68.62, -1.97 81.7" stroke="#1e1e1e" stroke-width="1" fill="none"></path></g><g transform="translate(450.97268677577375 109.46471784274092) rotate(0 -0.48634338788687614 40.26764107862954)"><path d="M-9.94 58 C-6.01 65.04, -5.78 70.96, -1.97 81.7 M-9.94 58 C-6.67 65.38, -3.48 73.61, -1.97 81.7" stroke="#1e1e1e" stroke-width="1" fill="none"></path></g><g transform="translate(450.97268677577375 109.46471784274092) rotate(0 -0.48634338788687614 40.26764107862954)"><path d="M7.16 58.43 C6.02 65.2, 1.18 70.99, -1.97 81.7 M7.16 58.43 C4.54 65.63, 1.85 73.72, -1.97 81.7" stroke="#1e1e1e" stroke-width="1" fill="none"></path></g></g><mask></mask></svg>