<svg version="1.1" xmlns="http://www.w3.org/2000/svg" viewBox="0 0 820 220" width="820" height="220">
  <!-- svg-source:excalidraw -->
  
  <defs>
    <style class="style-fonts">
      @font-face {
        font-family: "Virgil";
        src: url("https://excalidraw.com/Virgil.woff2");
      }
      @font-face {
        font-family: "Cascadia";
        src: url("https://excalidraw.com/Cascadia.woff2");
      }
      @font-face {
        font-family: "Assistant";
        src: url("https://excalidraw.com/Assistant-Regular.woff2");
      }
    </style>
    
  </defs>
  <rect x="0" y="0" width="820" height="220" fill="#ffffff"></rect><g stroke-linecap="round" transform="translate(10 10) rotate(0 400 100)"><path d="M0 0 C173.36 1.18, 345.61 1.96, 800 0 M0 0 C162.14 2.06, 324.39 2.01, 800 0 M800 0 C797.06 77.89, 800.26 156.97, 800 200 M800 0 C799.99 51.81, 798.9 103.75, 800 200 M800 200 C591.61 202.91, 383.38 201.94, 0 200 M800 200 C591.96 200.79, 384.41 201, 0 200 M0 200 C3.21 124.25, 2.4 50.89, 0 0 M0 200 C-1.64 156.7, -1.43 115.32, 0 0" stroke="#000000" stroke-width="1" fill="none"></path></g><g transform="translate(30 30) rotate(0 42.24166488647461 11.5)"><text x="0" y="0" font-family="Helvetica, Segoe UI Emoji" font-size="20px" fill="#000000" text-anchor="start" style="white-space: pre;" direction="ltr" dominant-baseline="text-before-edge">high level</text></g><g stroke-linecap="round" transform="translate(30 70) rotate(0 100 40)"><path d="M20 0 C81.34 -3.18, 142.67 -0.99, 180 0 M20 0 C80.33 -0.64, 138.85 -0.81, 180 0 M180 0 C193.02 -1.81, 200.54 6.22, 200 20 M180 0 C193.21 -0.27, 199.5 7.94, 200 20 M200 20 C197.9 35.59, 199 48.29, 200 60 M200 20 C201.2 28.89, 201.06 37.69, 200 60 M200 60 C199.13 73.27, 193.92 79.96, 180 80 M200 60 C202.14 71.28, 194.03 78.43, 180 80 M180 80 C138.21 79.57, 101.08 80.59, 20 80 M180 80 C125.8 81.44, 73.47 80.06, 20 80 M20 80 C8.54 80.42, -1.18 71.77, 0 60 M20 80 C4.58 81.48, 0.55 72.84, 0 60 M0 60 C0.88 47.54, -0.29 38.82, 0 20 M0 60 C-0.49 47.72, -0.58 37.26, 0 20 M0 20 C1.24 5.04, 6.35 0.13, 20 0 M0 20 C1.63 6.14, 7.59 -1.3, 20 0" stroke="#1e1e1e" stroke-width="1" fill="none"></path></g><g transform="translate(80.54166793823242 98.5) rotate(0 49.45833206176758 11.5)"><text x="49.45833206176758" y="0" font-family="Helvetica, Segoe UI Emoji" font-size="20px" fill="#1e1e1e" text-anchor="middle" style="white-space: pre;" direction="ltr" dominant-baseline="text-before-edge">read config</text></g><g stroke-linecap="round" transform="translate(310 70) rotate(0 100 40)"><path d="M20 0 C57.28 -0.95, 96.41 1.15, 180 0 M20 0 C53.64 1.71, 87.1 0.68, 180 0 M180 0 C194.48 -0.52, 200 7.59, 200 20 M180 0 C195.33 1.57, 202.11 6.61, 200 20 M200 20 C199.2 27.77, 199.62 36.43, 200 60 M200 20 C200.24 32.67, 200.65 44.89, 200 60 M200 60 C199.1 73.47, 194.23 81.41, 180 80 M200 60 C197.83 74.9, 192.26 79.73, 180 80 M180 80 C135.92 77.18, 90.07 80.01, 20 80 M180 80 C128.38 81.47, 75.89 79.9, 20 80 M20 80 C6.76 78.96, -1.87 72.84, 0 60 M20 80 C7.13 78.4, -1.06 75.3, 0 60 M0 60 C-1.14 51.5, -0.73 39.41, 0 20 M0 60 C-1.26 49.92, -0.8 41.76, 0 20 M0 20 C0.92 5.38, 7.26 -0.63, 20 0 M0 20 C-1.61 8.6, 8.92 2.01, 20 0" stroke="#1e1e1e" stroke-width="1" fill="none"></path></g><g transform="translate(352.75 98.5) rotate(0 57.25 11.5)"><text x="57.25" y="0" font-family="Helvetica, Segoe UI Emoji" font-size="20px" fill="#1e1e1e" text-anchor="middle" style="white-space: pre;" direction="ltr" dominant-baseline="text-before-edge">load openapi</text></g><g stroke-linecap="round" transform="translate(590 70) rotate(0 100 40)"><path d="M20 0 C51.63 -1.24, 87.76 -1.46, 180 0 M20 0 C54.32 0.66, 86.84 0.58, 180 0 M180 0 C195.05 1.33, 198.16 5.54, 200 20 M180 0 C192.29 1.84, 201.06 5.19, 200 20 M200 20 C201.55 35.15, 201.62 45.58, 200 60 M200 20 C199.5 29.28, 200.76 37.77, 200 60 M200 60 C199.67 72.93, 191.5 80.45, 180 80 M200 60 C197.7 72.02, 191.52 78.45, 180 80 M180 80 C131.82 81.43, 79.72 80.49, 20 80 M180 80 C119.31 81.67, 60.37 79.95, 20 80 M20 80 C4.77 78.11, 1.4 72.61, 0 60 M20 80 C8 80.64, -1.75 75.02, 0 60 M0 60 C-0.91 44.87, 0.55 33.17, 0 20 M0 60 C-0.98 46.1, -0.02 31.51, 0 20 M0 20 C-0.36 5.49, 7.24 0.7, 20 0 M0 20 C0.42 4.92, 7.79 0.38, 20 0" stroke="#1e1e1e" stroke-width="1" fill="none"></path></g><g transform="translate(619.9833297729492 98.5) rotate(0 70.01667022705078 11.5)"><text x="70.01667022705078" y="0" font-family="Helvetica, Segoe UI Emoji" font-size="20px" fill="#1e1e1e" text-anchor="middle" style="white-space: pre;" direction="ltr" dominant-baseline="text-before-edge">render template</text></g><g stroke-linecap="round"><g transform="translate(230 110) rotate(0 39 0.9873998346861441)"><path d="M0 0 C18.1 0.31, 38.48 -0.45, 78 1.97 M0 0 C27.13 0.16, 51.63 2.64, 78 1.97" stroke="#1e1e1e" stroke-width="1" fill="none"></path></g><g transform="translate(230 110) rotate(0 39 0.9873998346861441)"><path d="M54.47 10.42 C58.98 8.33, 65.74 4.98, 78 1.97 M54.47 10.42 C63.19 6.83, 69.34 5.8, 78 1.97" stroke="#1e1e1e" stroke-width="1" fill="none"></path></g><g transform="translate(230 110) rotate(0 39 0.9873998346861441)"><path d="M54.55 -6.68 C58.99 -4.49, 65.72 -3.57, 78 1.97 M54.55 -6.68 C63.36 -4.52, 69.49 0.22, 78 1.97" stroke="#1e1e1e" stroke-width="1" fill="none"></path></g></g><mask></mask><g stroke-linecap="round"><g transform="translate(510 111.16357629710373) rotate(0 39 0.000003974540163653728)"><path d="M0 0 C28.93 2.33, 61.07 1.54, 78 0 M0 0 C30.33 -1.69, 62.13 -1.41, 78 0" stroke="#1e1e1e" stroke-width="1" fill="none"></path></g><g transform="translate(510 111.16357629710373) rotate(0 39 0.000003974540163653728)"><path d="M54.1 7.32 C61.77 6.49, 72.66 2.81, 78 0 M54.1 7.32 C63.07 3.26, 73.48 0.65, 78 0" stroke="#1e1e1e" stroke-width="1" fill="none"></path></g><g transform="translate(510 111.16357629710373) rotate(0 39 0.000003974540163653728)"><path d="M54.98 -9.76 C62.31 -3.88, 72.85 -0.85, 78 0 M54.98 -9.76 C63.55 -7.06, 73.62 -2.92, 78 0" stroke="#1e1e1e" stroke-width="1" fill="none"></path></g></g><mask></mask></svg>